<?xml version="1.0" encoding="UTF-8"?>
<svg id="Layer_1" data-name="Layer 1" xmlns="http://www.w3.org/2000/svg" viewBox="0 0 83.25 89.46">
  <path d="M22.81,51.87c.86.1,1.6-.29,2.36-.63-.05-1.1-.2-2.41-1.25-3.02-1.43-.38-3.02-.3-4.42.16-.04.06-.1.12-.16.16.8,1.69,1.26,3.41,3.48,3.33,0,0-.01,0-.01,0ZM22.9,52.87c-1,0-2.05-.24-2.8-.93-.71-.66-.96-1.65-1.43-2.48-.25-.55-1.07-1.96.11-1.85,2.66-1.07,7.02-1.22,7.31,2.53-.01.55.21,1.14.03,1.66-.62.58-2.33,1.17-3.21,1.07Z"/>
  <path d="M52.58,54.29c.7-.09,1.39-.27,2.01-.62.41-.31.64-.77.93-1.18-2.09-1.36-4.94-2.74-6.26.29.02.32-.3.59-.61.52,1.01,1.11,2.55,1.2,3.94.99ZM50.85,55.36c-.81,0-3.5-.95-2.88-2.02.12-.13.3-.18.46-.15-.36-.27-.14-.78.04-1.08.27-.47.6-.91.99-1.29,2.03-2.04,4.95-.18,6.92,1.01.53.32.19.95-.1,1.32-.99,1.99-3.44,2.27-5.44,2.21Z"/>
  <path d="M34.68,73.91c1.35-.09,2.46-1.07,3.71-1.51.7-.38,1.6-.53,2.15-1.11.32-1.32-.18-2.94-.9-4.08-.93-1.11-2.42-1.66-3.78-1.95-2.1-.16-4.21-.16-6.21.5-2.32,1.01-3.39,2.82-1.68,4.99.53.67,1.57.59,2.3.96.62.23,1.11.75,1.74.93.49.04,1,.12,1.39.46.44.35.69.86,1.28.82ZM33.79,74.73c-.23-.11-.41-.28-.59-.45-.15-.14-.3-.29-.46-.43h0c-.32-.22-.64-.17-.99-.25-.64-.13-1.13-.63-1.7-.91-.8-.36-1.67-.4-2.41-.84-2.34-2.22-1.86-5.3,1.03-6.74,2.26-1.07,4.92-1.02,7.36-.84,2.29.43,4.73,1.7,5.28,4.15.25,1.2.83,2.86-.25,3.78-1,.73-2.26,1.04-3.35,1.62-1.21.56-2.54,1.51-3.91.9Z"/>
  <path d="M31.22,70.91c.32-.06.27-.51.25-.76-.06-.53-.28-1.37-.97-1.19.03.64.15,1.61.71,1.94ZM31.01,71.9c-1.07.07-2.31-3.72-.94-3.69,2.17-1.54,3.66,3.91.94,3.69Z"/>
  <path d="M37.31,71.5c.62-.18.49-1.48.21-1.9-.35.09-.5.46-.8.61-.03.09-.09.17-.16.23.12.41.34.89.76,1.07ZM37.11,72.48c-1.12-.05-2.57-3.34-.84-3.19,2.51-2.76,3.67,3.39.84,3.19Z"/>
  <path d="M10.74,43.75c-1.62-.7-2.94-2.76-4.33-3.93-2.03-2.23-4.28-4.75-4.97-7.75-.15-5.23-1.92-10.88-1.31-15.99.4-1.91.8-3.93,1.7-5.67.29-.61.35-1.25.26-1.9-.22-1.36-1.03-2.63-.74-4.05.1-1.49.45-3.2,1.62-4.22,1.37-.15,2.89-.46,4.27-.03,1.15.3,2.18,1.02,3.28,1.38,1.1.29,2.19.27,3.24.7,1.44.65,2.37,2.16,3.53,3.13.89.63,1.95.98,2.75,1.75,1.6,1.47,2.49,3.57,4.07,5.05,1.44,1.18,2.12,2.93,2.91,4.53.79,1.47,2.07,2.6,2.43,4.27.21.89.52,1.78.71,2.67-.04.58-.92.6-.99.04-.46-1.32-.62-2.75-1.32-3.98-.55-.82-1.22-1.58-1.68-2.48-.6-.95-.86-2.08-1.53-2.98-.83-1.07-1.88-1.93-2.69-3.02-.93-1.2-1.66-2.66-2.87-3.59-1.04-.79-2.35-1.16-3.18-2.22-.81-.75-1.48-1.72-2.48-2.23-1.29-.51-2.74-.36-3.99-.99-1.01-.46-2.02-1.05-3.12-1.22-1.01-.14-1.94.14-2.92.17-.91,1.24-1.11,2.86-1.08,4.31.34,1.59,1.22,3.18.62,4.83-1.02,2.22-1.72,4.66-1.96,7.07-.04,4.3,1.07,8.51,1.32,12.78.1,5.23,4.92,8.75,8.18,12.28.31.32.99.32.87.9-.06.26-.34.45-.59.38Z"/>
  <path d="M66.09,49.87c-.09-.27.06-.54.32-.63,1.29-.38,2.5-1.03,3.57-1.82,1.42-1.27,3.18-2.11,4.64-3.31,1.24-1.2,1.77-2.91,2.84-4.25,1.73-2.44,2.33-5.46,3.02-8.32.77-4.01,1.6-8.06,1.46-12.14.09-2.95.82-6-.17-8.85-.28-.98-1.08-.86-1.9-.73-1.77.28-3.54.66-5.31.94-4.64.71-9.04,2.28-12.86,5.03-3.5,2.36-7.09,5.27-8.41,9.42h0c.57.21.29,1.09-.29.95-.59-.07-.83-.72-.67-1.24,1.46-4.58,5.45-7.74,9.32-10.3,5.1-3.74,11.35-4.63,17.42-5.7.83-.11,1.72-.32,2.54-.09,2.16,1.62,1.57,4.98,1.59,7.38-.26,1.95-.27,3.88-.29,5.84-.34,4.85-1.28,9.69-2.69,14.34-.53,2.06-1.75,3.79-2.91,5.53-.89,1.89-2.26,3.47-4.13,4.42-2.17,1.38-4.02,3.31-6.6,3.88-.21,0-.41-.14-.48-.34Z"/>
  <path d="M65.07,42.16c-.22-.15-.29-.48-.12-.7.88-1.53,2.61-2.19,3.85-3.32,2.39-3.17,4.89-6.56,5.85-10.48.55-2.59.44-5.21.26-7.82-.09-.52-.11-1.1-.43-1.54-.84.29-1.51.86-2.22,1.36-2.2,1.41-4.62,2.42-6.74,3.94-2.32,1.79-5.06,3.65-6.08,6.5.79.49-.09,1.27-.73.86-1.18-1.58,1.85-4.48,2.98-5.53,3.56-3.42,8.19-5.4,12.3-8.02,2.09-.69,1.91,2.72,2.03,4.01.09,2.99.06,6.08-1.16,8.86-1.41,3.14-3.32,6.13-5.54,8.74-.99.93-2.36,1.4-3.16,2.49-.27.34-.58.98-1.09.64Z"/>
  <path d="M11.43,36.93c-1.44-1.91-2.8-3.83-3.44-6.18-.9-2.16-1.64-4.43-1.62-6.79-.08-5.85.46-11.82.65-17.58.12-.12.3-.2.48-.15,2.02.88,3.87,2.11,5.43,3.67,2.66,1.54,4.79,3.6,6.43,6.2,2.01,2.16,3.17,4.67,4.04,7.47.18.66.77,2.37-.27,2.47-.28-.02-.48-.27-.46-.54-.02-2.09-1.2-4.08-1.95-6-1.56-2.02-3.11-4.15-4.7-6.12-.93-.96-2.12-1.59-3.21-2.33-1.54-1.29-3.01-2.68-4.86-3.51-.02,5.97-.9,11.93-.48,17.89.71,3.41,1.79,7.06,4.01,9.79.32.51,1.27,1.29.65,1.86-.22.14-.55.09-.69-.15Z"/>
  <path d="M53.16,26.52c-7.58-1.61-15.36-1.81-23.06-2.22-.29.38-.86.12-.93-.31-.09-.64.7-.71,1.17-.71,6.11.4,12.29.54,18.35,1.42,1.52.13,3.07.62,4.54.82.64.05.56,1.06-.08,1Z"/>
  <path d="M33.56,88.88c-.7-.2-.36-1.18.33-.97,3.34-.13,6.78-1.3,9.58-3.11,2.1-1.58,4.56-2.79,6.14-4.94,1.27-1.73,2.97-3.08,4.33-4.73.69-1.06,1.45-2.21,2.4-3.02,1.64-2.11,3.43-4.33,4.85-6.56,2.16-4.41,3.62-9.09,4.55-13.86.11-.69.13-1.32.27-1.95.2-.6,1.16-.28.94.33-.06.34-.08.61-.11.94-.82,5.17-2.47,10.21-4.73,14.92-1.27,2.1-3.61,5.12-5.22,7.03-1.17,1-1.76,2.46-2.83,3.55-1.88,1.81-3.49,3.86-5.29,5.73-4.36,3.41-9.46,6.78-15.21,6.63Z"/>
  <path d="M33.38,89.4c-5.13-.1-9.43-3.55-13-6.9-1.23-.97-2.77-1.68-3.49-3.14-3.85-7.13-5.96-15.14-6.89-23.15-.51-4.07.43-8.15-.08-12.22-.54-.4.2-1.56.76-1.36.19.07.32.25.33.44-.09,3.18.27,6.1-.19,9.36.09,6.19,1.39,12.36,3.45,18.18,1.02,3.16,2.17,6.4,4.09,9.12,2.02,1.53,4.09,3.16,5.88,4.93,1.83,1.22,3.73,2.29,5.75,3.17,1.51.61,3.16.55,4.72.64.64-.05.71.98.05,1-.47.01-.94-.05-1.41-.06,0,0,.03,0,.03,0Z"/>
  <path d="M26.26,46.87c-.37-.93-4.1-2.74-2.66-3.7.38-.11.77.13.75.52.48.84,3.58,2.32,2.61,3.32-.22.14-.55.09-.69-.15Z"/>
  <path d="M47.04,48.68c-.07-.22.03-.51.26-.61,1.43-.59,2.83-1.27,4.26-1.87.59-.28,1.02.63.44.9-1.39.61-2.8,1.22-4.16,1.86-.3.11-.68.06-.79-.29Z"/>
  <path d="M44.86,84.17c-2.61.13-4.62-1.64-6.78-2.79-3.1-1.4-6.49-.8-9.68-.14-2.6.84-5.3,1.78-8.05,1.09-.42-.12-.86-.28-1.21-.54-.27-.29-.05-.82.35-.82.26,0,.48.15.7.26,2.76.94,5.51-.23,8.14-1,6.32-1.39,8.86-.86,14.25,2.59.58.23,1.07.26,1.65.31.5.05,1.06.13,1.49-.15.53-.35,1.1.5.54.84-.41.27-.92.38-1.41.36Z"/>
  <path d="M20.63,52.03c-2.01-1.31-.95-3.19.53-4.4.46-.51,1.28.24.74.72-.64.48-1.44,1.27-1.39,2.12.19.37.51.56.79.83.48.43-.2,1.18-.67.74Z"/>
  <path d="M24.35,52.15c-.8-.11-.22-1.09-.6-1.53-1.14-.04-1.8-1.37-1.3-2.34.14-.4.43-.91.94-.72-.02,0-.05,0-.07,0h-.04c.27,0,.51.19.53.47.01.23-.15.47-.38.52,0,0,0,0,0,0-.17.31-.22.75.09.99.24.14.55.08.77.25.63.33,1.05,2.36.07,2.38Z"/>
  <path d="M49.48,54.26c-.12-.76-.51-2.08.47-2.4.48-.02.84-.26,1.28-.41.41-.3.14-.81.35-1.18.25-.36.83-.22.91.21.09.39-.01.85-.19,1.2-.37.72-1.25.98-1.98,1.15-.14.58.56,1.57-.25,1.83-.26.05-.53-.13-.59-.4Z"/>
  <path d="M52.71,54.98c-.58-.34-.04-.94.14-1.35.16-.46.54-.94.31-1.42-.09-.3-.36-.51-.4-.83-.04-.38.41-.65.73-.47.25.15.38.45.5.7.44.73.19,1.56-.16,2.27-.24.44-.45,1.38-1.12,1.1Z"/>
</svg>