<?xml version="1.0" encoding="UTF-8"?>
<svg id="Layer_1" data-name="Layer 1" xmlns="http://www.w3.org/2000/svg" viewBox="0 0 147.28 170.16">
  <path d="M38.87,75.3c-1.26-.2-1.9-1.49-2.21-2.6-1.27-3.95,1.8-8.44,5.69-9.4,1.45-.38,4.85-1.12,5.61.55.06.81-1.08,1-1.2.17-2.21-.51-4.82.11-6.62,1.46-2.51,1.99-4.06,6.33-1.39,8.75.49.22.92-.05,1.32-.31,1.76-1.43,3.06-3.37,4.97-4.62,1.21-.85,3.11-1.99,2.4-3.71-.4-.51.41-1.13.79-.61.34.53.41,1.23.31,1.84-.44,2.12-2.71,2.92-4.15,4.25-1.8,1.35-3.04,4.19-5.52,4.23Z"/>
  <path d="M93.33,67.53c1.21-.04,1.96-1.22,2.2-2.25.94-4.2-3.89-6.91-7.53-6.66-1.21.05-3.6.37-2.77,2.1.32.35,1.13.71.52,1.24.17-.05.35,0,.49.13,1.43,1.05,2.81,2.14,4,3.47.86.85,1.84,1.98,3.14,1.97-.02,0-.04,0-.07,0ZM91.15,67.73c-1.5-1.09-2.6-2.72-4.1-3.8-.48-.47-2.22-1.1-1.44-1.9-1.14-.03-1.84-1.57-1.43-2.57,1.42-3.26,8.07-1.69,10.2.22,1.59,1.3,2.57,3.39,2.2,5.45-.32,2.72-3.1,4.5-5.43,2.6Z"/>
  <path d="M59.04,127.23c2.54.07,4.78-.77,7-1.86,1.3-.67,2.67-1.44,3.33-2.8,1.5-3.42,5.92-9.3.75-11.58-5.26-.24-10.51,1.11-15.76,1.43-1.73.36-3.56.51-5.24,1.01-.57.22-1.14.61-1.21,1.27-.37,2.18-.04,4.31.87,6.28.37.96.63,2.05,1.48,2.71,1.1.85,2.16,1.88,3.35,2.6,1.71.81,3.59.93,5.44.94ZM57.79,128.21c-2.34-.11-4.72-.63-6.43-2.34-1.08-.91-2.42-1.66-2.95-3.05-1.13-2.62-2.64-6.86-.94-9.49.78-.76,1.9-1.15,2.95-1.25,1.82-.24,3.62-.71,5.46-.81,4.81-.32,9.64-1.62,14.46-1.25,6.09,2.4,2.01,8.78.06,12.71-.95,2.23-3.32,3.32-5.43,4.2-2.2,1.16-4.72,1.39-7.18,1.28Z"/>
  <path d="M55.48,125c.19.02.43-.12.45-.32.15-1.05-.61-2.15-1.55-2.56-1.07-.25-2.23-.33-3.3-.36-.09.09-.21.15-.33.15.05,1.38,1.72,1.77,2.75,2.3.67.24,1.28.68,1.98.79ZM54.56,125.78c-1.66-.9-3.99-1.26-4.75-3.21-.11-.34-.11-.86.28-1.01-.32-.96,1.08-.82,1.66-.79,1.35.18,2.96,0,3.99,1.06,1.72,1.35,1.75,5.11-1.19,3.95Z"/>
  <path d="M64.23,123.11c.58-.04.97-.86,1.56-.55,1.15-.92,1.99-2.15,2.65-3.45.1-.23.12-.39.03-.6-.67-.38-1.7-.08-2.42-.01-.96.26-2.01.53-2.91.88-.22.06-.31.28-.32.48.14,1.11.44,2.62,1.42,3.25ZM63.84,124.05c-1.36-.59-2.73-4.15-1.58-5.3,1.31-.77,2.93-1.1,4.42-1.35.77-.02,1.65-.23,2.32.25.99.77.34,2.06-.22,2.89-.72,1.21-1.64,2.38-2.85,3.12-.19.09-.43.18-.63.06-.42.28-.95.5-1.46.33Z"/>
  <path d="M122.05,137.08c-3.12-.67-4.14-5.74-2.66-8.21.81-1.56-1.62-1.9-2-3.09-.3-1.42.34-3.06,1.54-3.88.86-.58,1.88-.96,2.54-1.78.96-1.06,1.15-2.5,1.87-3.68.71-1.04,1.75-1.84,2.75-2.59.12-1.7-.78-3.12-1.18-4.71-.38-2.08,1.63-3.37,2.3-5.09.22-1.07-.66-2.1-.19-3.16.24-.79.91-1.35,1.31-2.03.13-.5.06-.99.07-1.49-.22-1.61,1.02-2.74,1.46-4.11-1.05-2.07-.26-4.37.26-6.48-.23-1.38-1.96-2.11-2.23-3.53-.13-1.24.6-2.59.07-3.79.01.02.02.04.04.05,0,0,0-.02-.01-.03,0,0,0,0,0,0,0-.01-.02-.02-.02-.04-.61.04-.69-.93-.09-.99,1.35-.04,1.33,1.72,1.25,2.68,0,.71-.4,1.47-.16,2.15.97,1.6,2.9,2.62,1.87,4.74-.27,1.21-.59,2.33-.46,3.54.13.82.85,1.64.33,2.46-.34.67-.87,1.33-1.12,1.99-.32,1-.01,2.07-.27,3.09-.25.79-1.11,1.29-1.33,2.09-.1.26-.09.63-.02.85,1.39,3.33-2.09,4.09-2.05,6.88.46,1.77,1.69,3.66,1.04,5.5-1.02.88-2.29,1.66-2.93,2.88-.67,1.66-1.3,3.46-2.9,4.46-1.34.71-2.72,1.47-2.78,3.17-.17.79.71,1.01,1.18,1.46.55.41,1.03,1.03,1.05,1.73.06.97-.67,1.71-.79,2.65-.23,1.63.34,3.45,1.33,4.7.67.65,1.76.8,2.61.58,1.22-.35,1.78-1.47,2.59-2.33.34-.36.87-.68,1.36-.49.78.3.75,1.38,1.44,1.75,1.29.61,2.75.74,4.05.23-.17-.74,1.08-.87,1.49-1.3.77-.46,1.29-1.21,1.61-2.02.15-.34.07-.8.39-1.06,1.62-.62,3.38-1.26,4.52-2.63.21-.3.15-.64.27-.97.35-1.46,2.04-1.59,3.02-2.36,1.1-1.63.73-3.78,1.83-5.38-.74-1.71-1.82-3.41-2.35-5.27-.28-.91-.9-2.02-.34-2.93.27-.63,1.96-.88,1.15-1.64-1.03-1-2.28-1.98-2.55-3.47-.07-.42.02-.96.25-1.29.23-.59.68-1.13.48-1.73-.76-1.47-1.9-2.81-2.14-4.48-.12-1.1.63-2.12,1.2-2.95.22-.7-.23-1.51-.2-2.26-.07-1.03-.04-2.18-.23-3.16-.96-2.18-.86-4.83.19-6.95-.92-1.3-1.97-2.54-2.61-4.02-.18-.4-.35-.89-.18-1.32.39-.79,1.46-.86,1.94-1.58-1.62-1.18-3.38-2.72-3.25-4.92-.04-1.29,1.03-2.25,2.3-2.09-.3-1.2-.22-2.62-1.07-3.56-.99-.74-2.34-1.23-2.71-2.54-.23-.6-.05-1.36-.14-1.95-.14-.5-.82-.65-.97-1.18-.32-.89.28-1.77.48-2.62-1.4-.22-3.19-.18-4.11-1.41-.9-1.66,1.2-2.93,2.61-3.2-2.28-2.11-3.22-5.15-4.72-7.73-1.1-.81-2.41-1.7-2.57-3.18-.07-.61.05-1.43.66-1.72.39-.19.79.06,1.06.35,1.36,1.45,2.94,3.31,5.05,3.4-.37-1.4-1.29-2.65-1.51-4.11-.09-.93.31-1.96-.2-2.82-.89-1.21-2.33-2.04-2.81-3.52-.2-1.15-1.21-1.73-1.98-2.46-.75-.52-.98-1.59-1.76-2-.96-.3-2.19-.57-2.52-1.67-.19-.84.34-1.79-.16-2.59-.58-.89-1.71-1.01-2.66-1.25-2.01-.28-3.95-1.32-4.58-3.36-.07-.14-.18-.27-.33-.31-.95-.28-2.24-.57-2.35-1.74-.23-.47-1.05-.17-1.49-.34-.98-.16-1.95-.41-2.82-.9-3.62-2.45.57-4.64-6.48-3.85-1.78.28-3.61.05-2.34-2.17-4.96.37-1.82-1.82-4.25-1.81-1.34.04-2.71.58-4.03.25-1.49-.49-1.55-1.85-.16-2.54,1.21-.93,3.02-.9,4.08-2,.12-.16.19-.36.23-.56.08-.78-.09-1.79-.8-2.17-1.81-.46-3.76-.48-5.6-.33h0c-1.1,1.47-1.83,3.66-3.77,4.2-.69.16-1.29-.38-1.32-1.06-.17-.71.14-2.1-.57-2.44-1.06.18-1.85,1.07-2.29,1.97-.42.69-.58,2.08-1.61,2.02-.67-.31-1.03-1.23-1.66-1.64-.82-.76-1.37.5-1.92.95-1.15,1-3.15,2.6-4.56,1.25-1.02-1.47.9-3.39-.51-4.8-.32.36-.68.68-.92,1.08.16.86.86,1.65.81,2.6.04,1.54-1.5,2.07-2.75,2.32-.62.18-1.25.52-1.91.36-1.45-.7.43-2.15.62-3.11.28-1.2-.02-2.43-.09-3.65-.08-.79-.9-.94-1.53-.86-.69.12-1.63.06-2.02.7-.12,2.07.51,4.81-1.77,5.98-.63.51-.67,1.47-1.39,1.87-.5.33-1.14.3-1.7.25-1.44-.03-3.11-.08-4.35.7-.79.64-.48,1.74-.87,2.59-.84,2.49-3.35,1.12-5.06.63-.87-.16-1.34.74-2,1.1-1.01.47-2.24.37-3.24.82-3.01,1.2-2.57,3.17-6.27,1.18-.39-.07-.72.23-1.03.41-.45.37-1.07.65-1.12,1.26.31.87.48,1.74.09,2.61-.57,1.1-1.55,2.32-2.78,2.68-1.21.1-1.92-1.15-2.76-1.8-.84.79-.26,2.09-.43,3.1-.17,2.15-2.09,2.03-3.27.68-.57-.57-1.49-.52-2.15-.21-.61.51-.31,1.54-.74,2.2-.67,1.44-2.02.6-3.16.57.24,1.19.23,3.63-1.57,3.22-1.18-.31-1.56-2.25-2.93-1.95-2.15,1,2.87,3.86,1.8,5.39-.8.9-2.31.38-3.28,1.01-.39.64-.17,1.59-.71,2.23-.52.91-1.58,1-2.49,1.24-.71.69-.21,2.35-1.28,3.04-.97.85-2.47-.33-3.39.53-.25.42-.26.97-.62,1.33-.45.56-1.24.29-1.86.36-.74.01-1.32.52-1.67,1.13,1.86.81,3.53,1.48,3.07,3.89-.07.66-.35,1.27-.36,1.93.05.57.34,1.08.44,1.63.14.63-.08,1.27-.57,1.69-.32.31-.28.76-.26,1.17.15,1.23.22,2.57.53,3.73.38-.04.88.02.88.5-.02.62-.82.55-1.25.45-.74-.29-.71-1.23-.83-1.89-.12-1.23-.45-2.47-.3-3.71.08-.51.46-.86.77-1.24.19-.42-.08-.87-.19-1.28-.89-2.38,1.88-4.58-1.77-5.68-.5-.2-1.12-.48-1.18-1.09.09-1.05,1.14-1.93,2.13-2.16.54-.17,1.17.01,1.69-.12.02-.02.05-.07.06-.09.25-1,.84-1.88,1.97-1.87.74-.14,1.79.49,2.29-.23.52-.93.08-2.39,1.23-2.91.79-.37,1.78-.15,2.2-1.05.24-.49.23-1.01.32-1.52.41-1.47,2.36-1.25,3.55-1.55-.7-1.52-2.66-2.67-2.46-4.53.16-1.11,1.48-1.57,2.45-1.26.88-.03,2.31,2.91,2.62,1.54.16-.74-.08-1.38-.05-2.09.26-1.33,2-.59,2.85-.48.96-.37.41-1.91,1.1-2.58,1.14-1.1,3.14-.89,4.12.31,2.02,1.6.89-2.18,1.35-3.08.14-.43.37-.84.74-1.11.98-.65,1.7.56,2.35,1.13.98,1.12,1.65-.11,2.36-.81.35-.36.58-.89.64-1.35.09-.58-.28-1.05-.32-1.61.02-1.33,1.63-2.34,2.77-2.7,1.16-.21,2.12,1.2,3.27.75,1.77-1.46,3.54-2.33,5.87-2.51.67-.28,1.08-.97,1.77-1.22.56-.24,1.18-.15,1.74.02.75.21,1.52.7,2.27.7.83.05,1.1-.66,1.24-1.33-.04-2.75,2.35-3.41,4.66-3.45.88-.18,2.1.44,2.75-.32.39-.92,1.01-1.64,1.85-2.14,1.28-1.52.03-3.67.83-5.27.98-1.22,4.31-1.66,5.09-.03.37.76.31,1.64.37,2.45.29,1.51-.15,2.93-1.05,4.16.98-.49,2.85-.3,3.05-1.64-.46-2.57-1.84-2.21.51-4.59.13-.12.08-.29.15-.44.21-.52,1-.31.97.24.4.73,1.02,1.4,1.04,2.28.16,1.13-1.39,3.8.91,2.94,2.8-1.24,3.32-4.94,6.31-1.13.64-1.54,1.51-3.16,3.22-3.68.61-.25,1.36-.03,1.67.57.5.86.27,1.93.5,2.85,1.89-.53,2.21-3.01,3.6-4.11,1.15-.31,2.41-.16,3.6-.14,1.08.16,2.31.06,3.25.69,1.04.89,1.36,2.69.66,3.88-1.19,1.64-3.6,1.42-4.99,2.8,0,0,0,0,0,0,0,0,0,0,0,.01.71.73,1.85.2,2.72.17,1.35-.29,3.63-.36,3.58,1.56,1.84.45,4.26-.84,2.73,2.3,2.98.22,7.28-1.61,7.66,2.85.06.12.13.23.17.29.04.05.08.11.08.11.89,1.04,2.34,1.33,3.63,1.51.6.08,1.36-.04,1.75.53.25.27.19.69.41.96.51.37,1.13.44,1.7.66,1.07.54,1.01,2.16,2.12,2.72,2.6,1.44,7.03.72,6.06,5.14-.07.37.26.68.55.8.62.31,1.37.35,1.95.77.47.42.67,1.05,1.11,1.49.93,1.04,2.37,1.76,2.63,3.24.67,1.92,3.24,2.72,3.15,4.97.05.73-.23,1.54.07,2.23.31,1.35,1.55,2.61,1.3,4.02-.37.84-1.45.71-2.15.4-1.9-.62-3.22-2.04-4.52-3.47-.03.08-.04.27-.05.31,0,.72.44,1.31.93,1.74.72.64,1.67,1.08,2,2.05.87,1.91,1.69,3.8,2.93,5.46,1.18,1.36,2.88,2.58.03,3.17-.39.13-.73.3-1.01.57-.52.44-.53,1.04.15,1.3,1.03.43,2.07.48,3.15.6.76-.02.8.8.57,1.34-.1.68-.79,1.48-.34,2.06,1.17.64.85,1.86.95,2.93.27.92,1.15,1.32,1.89,1.77,1.2.65,1.54,2.06,1.74,3.3.07.58.18,1.14.36,1.69.03.17-.05.31-.15.44-.57.65-1.9-.16-2.19.88-.26.86.04,1.82.51,2.53,1.76,2.29,4.7,2.55.64,4.84.21.95.81,1.75,1.33,2.55.37.78,2.92,2.98,1.19,3.37-.57,1.69-.73,3.44-.12,5.12.56,1.25.37,2.69.5,4,.02.79.35,1.57.26,2.35-.28.81-1.02,1.43-1.22,2.24-.24,1.71,1.21,3.05,1.88,4.5.32.49.36,1.1.13,1.64-.15.63-.66,1.17-.67,1.82.3,1.68,2.11,2.3,2.77,3.73.43,1.21-1.08,1.53-1.56,2.29.36,2.27,1.46,4.41,2.54,6.42.29.41.53.92.32,1.41-.37.61-.64,1.2-.75,1.91-.19,1.32-.53,2.66-1.26,3.78-.6.68-1.63.84-2.35,1.32-.05.05-.1.09-.11.09-.37.35-.42.83-.51,1.29-.85,1.85-3.09,2.73-4.9,3.39-.11.7-.47,1.34-.86,1.92,2.08.82-3.2,2.76-3.92,2.89-1.96.37-4.51-.13-5.24-2.23,0,0,0,0,0,0-.81.55-1.23,1.56-2.04,2.14-.89.73-2.1.97-3.22.71Z"/>
  <path d="M23.31,138.99c-1.39-.2-1.73-1.64-2.06-2.78-.72-1.82-1.46-3.71-1.77-5.64-.62-1.98-2.03-3.47-2.95-5.28-.52-1.1-.02-2.61-.94-3.52-1.72-1.21-3.64-1.89-2.79-4.41.06-1.19-.27-2.36-.46-3.52-.22-1.6.27-3.3-.3-4.84-1.1-2.28-1.38-5-.71-7.46-3.71-1.49-2.23-2.98-1.13-5.69-1.74-1.3-3.53-2.44-2.22-4.88.53-1.25,1.09-2.74,1.21-4.04-.21-1.02-1.47-1.5-1.71-2.56-.57-1.77.65-3.73-.09-5.46-.34-.62-.9-1.13-1.12-1.81-.24-.69-.07-1.43-.12-2.14-.07-1.34-.94-2.39-1.34-3.62-.4-1.13.3-2.31.35-3.4-.2-1.43-.86-2.75-1.17-4.16-.12-1.03-.29-1.98-.8-2.88-.63-.02-.65-1.06-.13-1.26.65-.22.93.64,1.16,1.09.65,1.09.6,2.38.93,3.56.45,1.42,1.24,2.96.91,4.48-.14.69-.47,1.42-.32,2.12.2.77.66,1.43.95,2.16.56,1.08.47,2.31.48,3.48.14.67.68,1.16,1.02,1.74,1.1,1.76-.15,3.89.24,5.75.27.83,1.04,1.23,1.49,1.92.72,1.22-.15,2.64-.41,3.85-.19.9-.8,1.73-.96,2.6-.01.11-.02.22,0,.26,0,.05.02.1.01.11.17.84.95,1.29,1.59,1.75,2.79,1.4-.82,3.33-.03,5.1.42.5,1.02.74,1.58.98,1.37.4.2,1.96.32,2.89-.03,1.27.04,2.52.38,3.71.45,1.02.92,2.07.96,3.2-.39,2.83.85,5.5.26,8.27-.02.22.14.48.27.61.66.73,1.5,1.03,2.24,1.61,1.17.85,1.03,2.4,1.24,3.67.56,1.59,1.88,2.73,2.5,4.29.75,1.28.81,2.76,1.25,4.14.71,1.52,1.07,3.27,1.83,4.73.63.51,1.63.37,2.26.1,3.8-2.09,2.73-7.03,3.05-10.61.16-.98.7-1.87,1-2.8-.06-1.57-.81-3.1-.63-4.74,0-.64,1.01-.65,1,0-.01.29-.01.58,0,.87-.01,1.32.64,2.53.65,3.82-.18,1.05-.88,1.98-1.05,3.04-.12,2.45.12,4.94-.53,7.33-.53,2.37-2.77,4.8-5.37,4.26Z"/>
  <path d="M66.65,170.13c-.39-.11-.45-.55-.48-.9-.49-.55-.98-1.1-1.42-1.7-.23-.33-.43-.68-.59-1.05-.14-.32-.23-.68-.25-1.03-.01-.37-.01-.73-.02-1.08,0-.01,0-.03,0-.04,0,0,0-.01,0-.01,0-.11-.02-.22-.02-.26-.02-.11-.04-.23-.06-.27-.01-.03-.03-.07-.04-.1l-.02-.05c-.05-.08-.11-.15-.17-.22-.04-.05-.09-.09-.13-.13h0s0,0,0,0l-.02-.02s-.05-.04-.08-.06c-.29-.19-.6-.34-.9-.52-.21-.12-.41-.26-.6-.4-.14-.11-.3-.23-.41-.38-.09-.12-.18-.23-.23-.38-.03-.06-.04-.12-.05-.18-.01-.1,0-.21.02-.31.02-.08.04-.16.07-.24.02-.05.03-.11.05-.16.02-.09.04-.18.04-.21.02-.09.03-.17.04-.23.01-.11.01-.22,0-.3,0-.04-.01-.08-.01-.12-.01-.06-.03-.12-.04-.14l-.05-.1s-.04-.07-.07-.1c-.02-.03-.05-.06-.07-.08-.08-.09-.17-.18-.26-.26-.1-.09-.21-.17-.32-.25-.24-.16-.49-.29-.69-.39-.36-.17-.72-.34-1.06-.47-.27-.09-.54-.17-.82-.23-.3-.07-.59-.14-.88-.22-.45-.13-.87-.34-1.26-.6-.16-.11-.32-.22-.48-.34-.17-.13-.31-.29-.45-.45-.3-.32-.59-.65-.85-1-.25-.33-.48-.69-.7-1.02-.18-.25-.36-.5-.52-.69-.19-.21-.39-.42-.56-.57-.23-.2-.47-.38-.67-.52-.38-.25-.77-.48-1.15-.68-.01,0-.02-.01-.04-.02,0,0-.01,0-.02,0,0,0,0,0,0,0-.35-.17-.71-.33-1.06-.46-.43-.14-.86-.24-1.26-.33-.21-.04-.42-.09-.61-.13-.3-.06-.59-.14-.89-.2-.06-.01-.13-.02-.2-.02-.3,0-.6,0-.9,0-.7.01-1.4.02-2.08-.15-.2-.05-.39-.16-.56-.27-.14-.09-.25-.22-.36-.34-.13-.15-.21-.34-.29-.52-.05-.12-.09-.26-.14-.39-.13-.4-.26-.8-.38-1.14-.13-.34-.26-.67-.39-.94-.11-.2-.21-.4-.33-.58-.08-.11-.16-.22-.25-.32-.07-.08-.14-.15-.19-.19-.08-.07-.17-.14-.23-.18-.05-.03-.1-.06-.09-.06-.09-.04-.18-.09-.23-.11-.14-.05-.28-.09-.36-.11-.38-.08-.76-.12-1.14-.15-.19-.01-.39-.02-.59-.02-.27,0-.55-.02-.8-.11-.61-.22-1.12-.69-1.42-1.25-.36-.66-.69-1.34-.8-2.09-.09-.59-.17-1.18-.27-1.71-.04-.21-.1-.42-.15-.62,0,0,0-.02,0-.02v-.02c-.04-.08-.07-.17-.09-.21,0-.01-.01-.03-.02-.04h0c-.03-.06-.06-.11-.09-.16-.05-.07-.1-.13-.13-.16-.04-.05-.09-.09-.13-.13-.17-.15-.36-.28-.54-.41-.29-.21-.56-.41-.82-.65-.25-.22-.45-.51-.6-.8-.17-.34-.26-.72-.37-1.08-.06-.18-.13-.35-.21-.51-.06-.11-.12-.22-.19-.33-.15-.21-.31-.39-.46-.57-.48-.54-.97-1.08-1.33-1.71-.24-.43-.37-.89-.5-1.36-.07-.25-.14-.5-.2-.69-.12-.33-.25-.65-.4-.96-.08-.15-.16-.29-.25-.43-.06-.08-.11-.15-.17-.23-.04-.04-.08-.08-.12-.12-.03-.02-.05-.04-.08-.06-.12-.05-.23-.16-.28-.28-.07-.19-.04-.41.11-.55.14-.14.37-.2.55-.11.36.17.64.5.85.84.17.27.32.55.45.84.11.27.22.55.31.83.13.44.24.88.38,1.29.05.13.1.26.16.38.08.17.17.32.25.45.23.33.48.62.7.87.25.28.51.56.75.86.21.27.37.57.5.88.15.33.23.68.33.99.04.11.08.21.09.26.04.09.09.18.12.21.05.08.11.15.17.22.08.08.16.17.22.22.01.01.03.02.04.03h0c.38.32.8.58,1.17.89.18.15.35.33.47.53.09.14.16.29.23.45.09.19.14.4.19.61.2.74.25,1.51.39,2.26.03.17.08.33.13.48.12.32.26.62.41.92.08.15.16.29.25.43.04.05.08.11.13.16.04.04.08.08.12.12.07.06.14.12.22.17.05.03.1.06.15.09.05.02.1.04.14.06.01,0,.03,0,.04.01.08.01.15.02.23.03.36.02.73.02,1.09.05.86.07,1.75.24,2.41.84.74.66,1.15,1.61,1.47,2.53.15.43.28.85.41,1.23.04.11.07.2.11.29.04.07.08.15.1.16.02.02.04.05.06.07.03.02.05.05.08.07.07.04.13.08.15.08.04.02.09.03.13.05l.07.02c.18.04.35.06.46.07.51.03,1.02.03,1.53.02.29,0,.58-.01.87.02.22.02.43.09.64.14.12.03.24.05.35.08,0,0,.01,0,.02,0h.03c.2.05.39.09.52.11.43.09.86.19,1.28.32.82.25,1.59.66,2.32,1.1.66.4,1.28.9,1.79,1.49.35.41.65.86.94,1.3.1.15.21.31.32.45.14.19.29.36.4.49.23.27.47.53.73.77.09.07.17.13.26.2.17.12.34.22.45.29.19.09.37.17.57.24.45.14.91.23,1.37.35.41.11.82.27,1.2.45.43.21.86.41,1.26.67.29.19.54.43.78.68.23.25.39.55.46.88.08.34.05.72-.02,1.06-.04.19-.09.38-.15.57,0,0,0,0,0,0,0,0,0,0,0,0,.01.02.03.03.04.05.02.02.04.04.06.06.14.12.29.24.42.32.01,0,.03.02.04.02,0,0,.01,0,0,0,.38.24.78.43,1.15.67.39.25.68.61.86,1.03.11.26.14.57.16.85,0,.13.01.26.02.39.01.27,0,.54,0,.75,0,.09.02.17.02.2.03.14.07.28.1.36.05.14.11.28.18.41.11.2.23.4.36.59.17.24.36.48.55.71,0-.24,0-.47,0-.71,0-.42-.04-.86.06-1.27.07-.3.19-.58.33-.86.14-.29.34-.53.49-.74.02-.03.04-.06.05-.1.01-.03.02-.06.04-.09,0-.03.01-.05.02-.08,0-.04,0-.09.01-.13,0-.08,0-.16,0-.19,0-.06-.02-.12-.03-.18-.06-.29-.14-.57-.14-.88,0-.14.05-.3.1-.43.06-.14.15-.29.26-.4.15-.15.3-.29.48-.4.2-.12.39-.24.6-.34.27-.14.55-.26.83-.38.18-.08.36-.15.55-.23.27-.11.56-.2.86-.22.36-.02.71.07,1.01.29.41.3.72.71,1.08,1.06.12.1.25.2.38.3.17.11.34.2.46.26.2.09.4.18.6.26.22.09.46.18.68.3.1.06.2.12.29.2.12.12.2.24.28.39.11.2.16.42.22.6.03.08.06.15.06.16.04.08.08.16.13.22.03.04.06.08.09.11.02.02.05.04.07.07.02.02.04.03.06.05.07.05.14.09.16.09l.1.04s.08.02.12.03c.02,0,.04,0,.06,0h.06s.05,0,.07,0c.03,0,.05-.01.08-.02.07-.02.14-.06.15-.07.02-.01.05-.03.07-.05.03-.02.05-.04.07-.06.02-.02.04-.04.06-.06.02-.03.05-.06.07-.07.04-.05.07-.11.1-.16.02-.04.03-.08.05-.12.03-.09.05-.18.05-.21,0-.03,0-.07.01-.1,0-.09,0-.18,0-.27,0-.1-.02-.19-.04-.28-.05-.21-.1-.4-.15-.54-.05-.13-.09-.26-.14-.39-.07-.2-.16-.41-.14-.64.02-.2.08-.38.18-.55.14-.27.37-.47.58-.67.01-.02.03-.04.04-.06.01-.02.02-.04.03-.06.01-.03.03-.06.04-.1.02-.07.04-.14.05-.21.03-.17.04-.33.06-.5.02-.48.03-.96.06-1.43.03-.39.05-.77.14-1.15.11-.43.39-.77.75-1.01.33-.23.77-.4,1.18-.36.45.05.88.27,1.15.63.15.2.28.41.39.64.13.27.21.57.3.86.08.27.16.53.24.8.08.21.16.41.24.62.07.18.16.35.24.51.2.37.41.74.62,1.11.15.25.32.49.45.75.24.48.4.97.5,1.49.12.62.09,1.28.08,1.91,0,.4-.03.8-.02,1.21.24-.37.44-.76.64-1.15.15-.33.29-.65.42-.99.14-.35.27-.7.42-1.04.31-.73.64-1.45.97-2.17.3-.66.57-1.32.82-2,.13-.36.26-.71.41-1.06.15-.37.32-.73.47-1.11.04-.1.07-.21.08-.25.03-.15.05-.3.07-.46.02-.34.02-.68,0-1.02,0-.32-.02-.64,0-.96.02-.4.09-.79.24-1.16.3-.79.81-1.46,1.43-2.03.3-.27.62-.51.96-.71.3-.18.64-.32.99-.38.18-.03.35-.05.52-.05.19-.01.38.02.57.05.41.07.79.24,1.14.45.39.23.72.55,1.04.88.26.27.5.57.71.88.14.21.29.42.42.64.21.36.36.74.45,1.14.07.3.12.6.17.9.06-.33.12-.65.17-.98.05-.34.08-.69.11-1,0-.01,0-.03,0-.04h0c0-.25.01-.49,0-.73,0,0,0-.02,0-.03h0c-.03-.33-.07-.64-.13-.94-.09-.44-.21-.87-.32-1.23-.08-.23-.18-.46-.28-.68-.09-.18-.19-.36-.3-.53-.08-.12-.17-.23-.25-.34-.1-.11-.2-.2-.3-.3-.1-.08-.2-.16-.3-.23-.05-.04-.11-.07-.11-.07-.51-.26-1.07-.46-1.5-.85-.38-.35-.66-.79-.9-1.25-.27-.5-.47-1.04-.62-1.58-.14-.48-.18-.97-.12-1.46.06-.45.26-.88.52-1.26.49-.71,1.18-1.25,1.82-1.81.02-.02.04-.04.06-.05.05-.06.1-.12.15-.19.02-.03.03-.05.05-.08.01-.04.03-.07.05-.11.04-.12.08-.24.11-.36.08-.44.12-.88.15-1.32.01-.28.02-.56.07-.83.06-.32.19-.65.36-.93.09-.15.2-.29.3-.43.11-.13.22-.25.33-.37,0-.01.02-.02.03-.03,0,0,0,.01-.01.02,0,0,0,0-.02.03.01-.02.03-.04.04-.06,0,0,0,0,0,0,0-.02,0-.04,0-.05.01-.34.02-.69.03-1.03.02-.29.05-.59.09-.88.05-.42.14-.83.23-1.24-.15-.07-.25-.2-.28-.38-.04-.27.16-.54.43-.57.07,0,.14,0,.15,0,.11,0,.22-.03.33-.02.21.02.39.19.44.39.04.16,0,.32-.03.48-.05.24-.11.48-.14.65-.1.53-.16,1.06-.21,1.53-.01.16-.02.33-.03.49,0,.23,0,.46-.02.68-.02.2-.08.4-.21.57-.1.12-.2.22-.31.34-.07.09-.15.18-.21.26,0,0,0,0,0,.01h0c-.05.08-.1.16-.14.23-.04.09-.08.18-.11.23,0,.02-.01.04-.02.06,0,0,0,0,0,0-.02.07-.04.14-.05.15-.02.09-.03.19-.04.28-.01.26-.02.53-.04.79-.02.25-.05.51-.08.76-.04.3-.11.59-.21.87-.09.26-.23.47-.41.68-.12.15-.28.27-.43.4-.12.11-.25.22-.37.32-.27.24-.53.49-.77.75,0,0,0,0,0,0h0c-.1.12-.19.24-.27.37-.07.11-.13.21-.18.32-.02.04-.03.07-.04.09-.03.08-.05.15-.07.21,0,.01,0,.02,0,.03h0c-.02.11-.03.2-.04.26,0,.08,0,.15,0,.21,0,.01,0,.02,0,.03h0c.01.16.03.3.05.4.06.26.13.5.21.72.12.33.26.64.4.92.1.2.21.38.33.57.07.09.14.18.21.27,0,0,0,0,0,0,.05.05.1.11.14.15.07.06.13.11.2.16.15.1.31.18.47.26,0,0,0,0,0,0,.13.06.26.12.39.18.3.14.57.33.83.54.69.58,1.11,1.41,1.41,2.23.2.58.34,1.19.45,1.79.09.52.1,1.04.07,1.56-.01.24-.04.47-.07.71-.04.36-.1.73-.16,1.09-.06.32-.12.64-.21.95-.05.16-.12.35-.23.48-.04.04-.08.09-.12.13-.05.05-.13.09-.19.14-.18.11-.45.1-.63.02-.25-.11-.44-.4-.51-.66-.14-.51-.19-1.04-.28-1.52-.04-.15-.07-.29-.1-.38-.03-.09-.07-.18-.11-.26-.09-.17-.18-.34-.29-.5-.24-.35-.48-.68-.72-.95-.15-.17-.3-.32-.46-.47-.12-.11-.25-.21-.36-.29,0,0-.01,0-.02-.01h0c-.13-.08-.26-.16-.38-.23-.07-.03-.14-.06-.21-.09-.11-.04-.22-.07-.32-.09-.08-.01-.16-.02-.24-.03,0,0,0,0,0,0-.1,0-.2,0-.29,0-.08,0-.16.02-.2.03-.08.02-.15.04-.21.06-.12.05-.25.1-.36.15-.11.06-.22.12-.32.19-.21.14-.4.3-.54.42-.16.15-.32.3-.47.47-.12.14-.23.29-.34.45-.11.18-.21.35-.28.48-.05.1-.09.2-.13.3-.04.14-.08.27-.12.41-.03.14-.04.29-.05.43-.02.34.01.69.01,1.03,0,.28,0,.55,0,.83-.01.49-.13.96-.32,1.41-.11.24-.21.48-.31.72-.2.47-.37.95-.55,1.43-.2.52-.41,1.04-.64,1.55-.21.48-.43.94-.65,1.42-.21.48-.42.96-.61,1.44-.2.49-.39.98-.61,1.46-.11.25-.24.49-.36.73-.12.25-.27.48-.42.71-.07.1-.14.2-.21.3-.09.11-.2.2-.3.29-.16.13-.39.23-.6.2-.11-.02-.2-.07-.29-.12-.09-.05-.16-.15-.23-.23-.07-.08-.11-.2-.13-.3-.04-.13-.05-.28-.05-.42,0-.18-.01-.36,0-.54.02-.74.06-1.49.02-2.23-.02-.21-.05-.43-.07-.57-.05-.22-.11-.43-.18-.64-.07-.17-.14-.34-.22-.5-.36-.63-.78-1.23-1.08-1.89-.08-.16-.15-.32-.23-.49-.09-.19-.15-.39-.23-.58-.05-.14-.09-.27-.13-.41-.09-.3-.18-.59-.26-.86-.06-.18-.14-.36-.22-.53-.04-.07-.08-.14-.13-.21-.03-.03-.05-.07-.08-.1-.02-.02-.03-.04-.05-.06-.02-.02-.04-.04-.07-.06-.02-.02-.05-.03-.07-.05-.04-.02-.08-.04-.12-.06-.02,0-.05-.01-.07-.02-.02,0-.05,0-.07,0-.03,0-.05,0-.08,0-.03,0-.06.01-.09.02-.03,0-.05.01-.08.02-.03.01-.07.03-.1.04-.07.03-.13.07-.14.08-.06.04-.12.08-.18.13-.02.02-.03.04-.05.05-.02.03-.04.05-.07.08-.01.02-.03.05-.04.07-.01.03-.02.05-.04.08-.02.06-.04.13-.05.19-.05.31-.07.62-.09.94-.02.41-.03.82-.05,1.23-.02.35-.06.7-.16,1.04-.04.15-.11.3-.21.43-.04.06-.08.11-.12.16-.11.1-.22.2-.32.31l-.03.03c-.05.06-.09.13-.12.19,0,.02-.01.03-.02.04,0,0,0,.01,0,.02,0,0,0,0,0,0,0,.02,0,.04.01.06.16.46.33.91.42,1.39.07.41.04.84-.09,1.23-.1.33-.32.67-.59.89-.14.12-.3.21-.46.3-.16.08-.34.11-.52.13-.36.05-.71-.08-1.03-.24-.31-.16-.54-.45-.72-.74-.13-.22-.21-.46-.28-.7,0,0,0,0,0,0-.02-.07-.05-.14-.08-.21v-.03s-.04-.05-.06-.08c0-.01-.02-.02-.03-.03,0,0-.02-.02-.03-.02l-.03-.03c-.39-.19-.81-.34-1.21-.52-.35-.16-.67-.37-.97-.61-.37-.3-.66-.68-.95-.96-.06-.05-.12-.1-.18-.15-.04-.02-.07-.04-.11-.06-.03-.01-.06-.02-.09-.04-.02,0-.04,0-.03-.01-.07,0-.14,0-.17,0-.05,0-.1.01-.14.02-.06.01-.11.03-.17.04-.53.19-1.06.42-1.57.68-.17.09-.34.19-.45.25-.08.06-.16.12-.21.16-.04.03-.07.07-.1.1-.02.02-.04.05-.06.07,0,.01-.01.02-.02.03v.02s-.02.03-.02.04v.09s0,.04,0,.06c.03.15.06.29.1.44.05.23.07.46.06.7,0,.23-.07.44-.15.65-.09.23-.27.42-.41.62-.09.15-.17.3-.24.43-.04.09-.08.18-.1.24-.03.08-.05.17-.05.19-.02.1-.03.2-.04.25-.02.46,0,.91,0,1.37,0,.46.01.91.03,1.37.18.24.32.52.24.83-.08.27-.31.47-.58.47-.05,0-.1,0-.16-.02Z"/>
  <path d="M114.66,138.77c-.85-.1-1.57-.56-2.4-.56-1.06.08-2.25,1.08-3.24.29-.69-.83-1.12-2.08-2.27-2.38-.8-.18-1.56.23-2.32.43-1.73.63-3.58.6-5.16-.39-.97-.53-2.12-.84-2.96-1.56-.11-.15-.17-.36-.12-.55.15-.58,1.19-.57,1.18.09,1.59.63,3.09,1.88,4.85,1.85,1.43-.08,2.68-.83,4.09-.92,1.23,0,2.27.9,2.88,1.9.23.33.37,1.01.89.8.64-.15,1.25-.43,1.9-.54,1.38-.13,2.65.83,4.06.59,1.11-.07,2.12-.41,3.21-.51.83-.07,1.71.13,2.54.02.93-.19,1.79-.84,2.75-.88.22-.03.31-.08.46-.19,0,0-.01.01-.02.02-.01,0-.02.02-.03.02.11-.07.18-.17.24-.29.13-.24.45-.31.68-.18.5.32.11.94-.24,1.21-.48.43-1.14.37-1.72.56-1.12.56-2.42.93-3.63.71-1.9-.14-3.72.8-5.63.45Z"/>
  <path d="M35.95,127.16c-3.58-.92-4.49-4.37-5.61-7.42-.18-.84.34-1.71.15-2.55-1.08-2.69-3.13-4.05.44-6.05.31-.2.6-.54.61-.91-.01-1.18.1-2.39.57-3.48.74-1.23,1.71-2.4,2.73-3.41.97-1.41,2.11-2.7,3.69-3.43,1.39-.78,2.29-1.97,3.49-2.96,1.07-.89,2.59-.87,3.86-1.06,1.3-.3,2.39-1.24,3.77-1.26,2.88-.17,4.97,1.97,5.9,4.46.51.18.38.98-.17.97-.37,0-.6-.31-.78-.59-.67-1.63-1.54-3.11-3.32-3.61-1.38-.53-2.73-.09-3.95.58-1.17.64-2.53.45-3.77.8-1.99.89-3.1,3.03-5.16,3.88-1.01.54-1.8,1.4-2.41,2.35-.65.89-1.51,1.53-2.1,2.45-.88.93-1.3,2.12-1.34,3.37.01.87,0,1.84-.76,2.43-.63.58-1.81.88-1.89,1.86.21,1.18,1.22,2.03,1.52,3.18.26.82,0,1.68-.12,2.5.04.75.58,1.31.73,2.04.49,2.22,1.94,4.27,4.18,4.89.39-1.57-.54-4.5,1.82-4.63-.11-1.46-1.09-3.21.31-4.35.69-.6,1.33-2.49,2.45-1.66.46-1.22.33-2.64,1.03-3.72.29-.29.72-.24,1.09-.37.62-.21,1.15-.66,1.81-.75.64-.09.78.9.14.99-.8.23-1.48.81-2.35.87-.41.9-.56,5.6-2.27,3.85-.49.77-1.3,1.39-1.66,2.2-.15,1.21.89,2.49.22,3.62-.28.47-.97.18-1.28.55-.53,1.07.47,5.08-1.59,4.37Z"/>
  <path d="M88.85,128.53c-1.06-.3-1.69-1.39-1.61-2.45-.4-1.37-.6-2.88-1.23-4.16-.61-.62-1.33-1.27-2.03-1.74-.97-.67-2.02-1.24-2.9-2.01-.25-.82-.36-1.3-1.04-1.93-.19-.2-.2-.51,0-.71.79-.65,1.84,1.43,1.9,2.08,1.7,1.26,3.63,2.19,4.97,3.85.74,1.7,1.14,3.6,1.43,5.41.49,1.08,1.74.72,2.6.37.58-.23.06-.93.07-1.38-.34-1.48-.59-3.29.77-4.34.2-.24.53-.34.52-.64-1.24-2.3-1.37-4.59,1.09-6.05.74-.57.56-1.64.64-2.47.14-2.33-1.1-4.27-1.59-6.46-.39-1.57-.8-3.27-2.02-4.4-1.63-1.15-3.03-2.63-4.79-3.57-1.78-.73-2.78-1.76-3.84-3.3-.69-.63-1.68-.41-2.52-.62-1.34-.09-1.7-1.48-2.62-2.16-3.41-1.35-6.29,1.74-8.55,3.89.28.29.03.85-.38.82-2.61-.33,1.56-3.16,2.22-3.84,1.59-1.37,3.46-2.4,5.62-2.15,1.46-.09,2.42,1.06,3.15,2.15,0,0,0,.01,0,.01.24.18.48.24.75.29,1,.18,2.15.06,2.94.81.66.58,1.02,1.47,1.67,2.04.54.47,1.17.71,1.79,1.05,1.55.68,2.67,1.94,4.03,2.9,1.05.72,2.03,1.58,2.55,2.77.64,1.36.91,2.91,1.32,4.33.82,1.82,1.39,3.77,1.28,5.79-.06.75-.03,1.58-.41,2.25-.46.72-1.32,1.06-1.85,1.7-.47.88-.36,2.02.03,2.9,1.43,2.18-.42,2.06-1.01,3.71-.47,1.56,1.46,3.94-.37,4.84-.79.34-1.7.62-2.55.41Z"/>
  <path d="M66.8,146.19c3.21-.26,7.03-.66,9.16-3.33.81-1.57,1.46-3.22,2.3-4.76.83-1.18,2.6-8.02.11-7.82-3.53-.08-6.91,1.14-10.25,2.12-4.89,1.57-9.97,2.55-14.73,4.51,3.72,4.11,6.89,10.39,13.41,9.27ZM64.78,147.24c-5.86-.09-8.7-6.09-12.28-9.79-3.15-1.46,9.93-4.28,10.88-4.73,4.99-1.18,9.83-3.53,15.04-3.45,3.28.19,2.04,4.54,1.79,6.68-.4,1.49-1.22,2.88-1.86,4.22-.67,1.17-.96,2.44-1.75,3.52-2.95,3.21-7.72,3.43-11.8,3.54Z"/>
  <path d="M64.74,153.01c-4.56-.55-7.7-4.94-11.14-7.63-1.17-1.26-1.96-2.84-3.27-3.98-.41-.54.43-1.13.84-.6.2.04.37.2.4.41,1.24,1.29,2.04,2.93,3.39,4.12,2,1.53,3.85,3.38,5.78,4.96,3.9,2.9,9.66,2.24,13.55-.35,1.71-1.36,3.43-2.88,4.82-4.55,1.54-2.74,2.31-5.99,4.23-8.5.28-.65,1.28-.24.93.41-1.07,1.38-1.7,2.9-2.4,4.46-.98,2.4-1.9,4.89-4.11,6.44-3.24,3.69-8.16,5.58-13.03,4.8Z"/>
  <path d="M68.36,141.06c-1.9-3.2-5.09-4.55-8.71-4.29-1.42.24-3.3.13-4.21,1.42.34.8-1.19,1.11-1.15.21.41-2,2.76-2.27,4.45-2.55,2.38-.28,4.98.03,7.1,1.16,1.37.87,2.37,2.14,3.31,3.43.16.22.13.54-.09.7-.21.16-.54.13-.7-.09Z"/>
  <path d="M65.93,137.88c-2.28-.8,3.02-4.01,3.88-4.47,3.14-1.35,7.32-1.73,10.21.39.32.3.85.83.37,1.22-.47.35-.77-.22-1.07-.51-.73-.6-1.66-.81-2.56-1.04-3.81-.69-7.85.86-10.35,3.77.09.3-.16.65-.48.63Z"/>
  <path d="M25.17,80.99c-1.04-.64-.87-2.32-1.41-3.34-.31-1.13.14-2.41-.36-3.49-.46-.48-1.53-.02-1.65-.97.3-1.76.15-4.09,1.65-5.11.83-.89,2.5-1.34,2.81-2.55-.24-.4-.44-.95-.1-1.36,1.16-1.1,2.73-1.77,3.77-3.01,1.1-1.43,1.79-2.87,3.64-3.43.97-.47,2-.78,2.97-1.25.76-.75,1.61-1.42,2.63-1.78.45-.22.94-.22,1.42-.26.27-.34.41-.77.67-1.12.61-.9,1.66-1.63,2.78-1.57,1.89.65,3.52,2.69,3.48,4.73,0,.38-.14.74-.36,1.04-.4.52-1.18-.1-.79-.61.1-.12.15-.29.16-.43.04-1.59-1.32-3.29-2.76-3.74-1.27.2-1.76,1.3-2.34,2.27-.33.49-.92.43-1.43.48-1.36.25-2.17,1.37-3.27,2.03-1.43.62-3.02,1.09-4.27,1.96-.7.69-1.05,1.59-1.73,2.3-1.02,1.24-2.5,1.97-3.73,2.97,1.25,2.28-2.45,3.2-3.49,4.68-.49,1.06-.4,2.33-.69,3.46,2.03-.03,1.92,2.28,1.88,3.74.09,1.14.56,2.22.87,3.32,1.47-1.25,1.82-2.86,3.5-3.89.42-.65.57-1.34,1.06-1.93.71-.86,1.77-1.4,2.51-2.21.95-1.38,1.38-2.98,2.08-4.47.11-.25.41-.37.66-.27.25.11.37.4.27.66-.73,1.58-1.22,3.32-2.25,4.73-.7.8-1.7,1.34-2.41,2.1-.74.94-.9,2.35-2.15,2.78-.83,1.04-1.47,2.25-2.47,3.14-.3.27-.72.55-1.14.4Z"/>
  <path d="M103.34,75.92c-.43-.21-.68-.62-.92-1.01-.67-.96-1.67-1.65-2.18-2.73-1.2-1.89-1.67-4.11-2.48-6.14-.12-.25.02-.55.27-.66.26-.11.54.02.66.27.71,1.51.94,3.29,1.73,4.71.81,1.95,2.12,3.04,3.35,4.66.47.25.9-.38,1.2-.66.34-.35.49-.81.55-1.27.29-.71.9-1.28,1.14-2,.15-.56.14-1.15.29-1.72.11-.61.44-1.18.48-1.8-.11-.53-.4-1.01-.69-1.47-2.35-1.85-3.44-4.24-4.65-6.91-.43-.78-1.45-.94-2.06-1.55-.88-.84-2.1-1.61-2.24-2.92-.06-.51.06-1.03-.04-1.54-.06-.22-.18-.38-.4-.43-1.41-.14-3.01-.03-4.15-1.03-.83-.8-2.03-1.14-3.13-1.24-2.03.6-4.07,1.65-6.25,1.02-.81-.12-1.48-.79-2.3-.79-.94.43-2.02.99-2.43,1.99-.15,1.08.09,2.19.03,3.29,0,.27-.23.5-.5.5s-.5-.23-.5-.5c.1-1.31-.36-2.71.16-3.96.67-1.14,2-2.06,3.29-2.33.75-.01,1.37.45,2.05.7.96.35,2.1.31,3.08.12,1.36-.19,2.52-1.28,3.93-1,1.68.15,2.62,1.08,3.97,1.86,1.21.55,2.87-.13,3.82.91.51.66.33,1.51.36,2.29.21,1.12,1.52,1.89,2.3,2.58,2.22.84,2.47,3.36,3.7,5.1.44.68.7,1.39,1.29,1.9,1.13.73,2.02,1.83,2.34,3.15.11.88-.41,1.66-.54,2.51-.1,1.01-.27,2-.93,2.81-.39.47-.5.89-.64,1.44-.49,1.05-1.71,2.46-2.98,1.83Z"/>
  <path d="M41.41,73.04c-2.03-.09-5.47-3.71-3.47-5.46.75-.36,1.3.69.45.94-.08.21-.04.54.02.71.49,1.39,1.66,2.56,3.12,2.82.21.07.4-.1.51-.26.39-.51,1.2.11.79.61-.33.44-.87.76-1.43.64Z"/>
  <path d="M44.39,69.49c-.26-1.76-.59-4.42-2.79-4.63-.15,0-.3,0-.45.01-.57.02-.68-.85-.13-.98,2.52-.4,3.98,2.24,4.2,4.4.03.53.5,1.46-.26,1.63-.27.04-.53-.16-.56-.43Z"/>
  <path d="M87.24,63.31c-.19-1.18-.04-2.48.68-3.46.8-.86,2.01-1.71,3.22-1.72-.02,0-.04,0-.06-.01-.02,0-.04,0-.06,0,.65,0,.65,1.01,0,1-.58.09-1.03.39-1.5.68-.64.38-1.13.97-1.26,1.69-.11.57-.14,1.14-.03,1.71.04.27-.16.53-.43.56-.27.04-.52-.16-.56-.43Z"/>
  <path d="M89.47,65.48c.1-1,1.44-.36,2.1-.52,1.21-.19,2.45-.6,3.38-1.38.3-.47.1-1.69.89-1.66.9.25.12,1.64-.07,2.21-1.39,1.4-3.65,1.99-5.58,1.78-.07.03-.14.05-.23.05-.27,0-.5-.23-.5-.5,0,0,0,0,0,0Z"/>
</svg>