<?xml version="1.0" encoding="UTF-8"?>
<svg id="Layer_1" data-name="Layer 1" xmlns="http://www.w3.org/2000/svg" viewBox="0 0 96.67 154.12">
  <path d="M3.82,64.73c-.47-.07-.59-.59-.61-.99-.4-3.34-1.12-6.63-1.68-9.94-.58-2.48-.75-5.02-1.11-7.54-.52-2.56-.6-5.23,0-7.78.87-2.86,2.17-5.65,2.89-8.55.84-3.01.81-6.06,1.64-9.05.57-1.91,1.44-3.71,2.19-5.48,1.25-4.1,3.94-7.36,6.21-10.91,1.34-2.6,3.7-5.46,6.95-4.18,2.36,1.19,3.01,3.98,3.98,6.22,1.64,3.87,2.48,8.01,3.95,11.95,2,5.52,3.53,11.19,4.66,16.94.65,2.58,1.16,5.19,1.63,7.81.05.27-.13.54-.39.59-.27.05-.54-.13-.59-.39-.84-4.67-1.93-9.37-3.02-13.98-1.11-4.71-2.75-9.18-4.3-13.74-1.43-4.49-2.54-9.29-5.01-13.32-1.01-1.43-2.48-1.64-4.01-.98-1.67.82-2.38,2.77-3.38,4.24-2.18,3.21-4.56,6.29-5.73,10.05-2,3.9-2.89,8.07-3.36,12.39-.57,2.96-1.58,5.84-2.69,8.64-1.42,3.23-1.21,6.84-.54,10.21.52,5.57,1.96,11.01,2.66,16.55.82.15.28,1.33-.37,1.25Z"/>
  <path d="M75.54,82.53c-2-.39,5.46-8.41,6.18-9.29,1.6-2.23,2.79-4.7,4.14-7.07.93-1.56,2.24-2.94,3.03-4.55.77-1.62,1.17-3.35,1.64-5.05,1.01-2.61,1.15-5.4,1.65-8.11.8-3.77,1.56-7.54,2.03-11.38,1-4.18,1.81-8.6,1.32-12.89-.27-3.22-1.74-6.1-3.03-8.99-1.03-2.06-2.65-4.51-5.2-4.5-1.7.41-3.5,1.31-4.36,2.87-.46,1.33.26,2.89-.48,4.16-1.02,1.27-1.66-.7-2.29-1.3-.9.94-1.41,2.16-2.08,3.26-1.05,1.86-2.83,3.12-4.1,4.81-2.63,3.69-5.21,7.47-8.35,10.77-1.35,1.84-2.19,3.99-3.5,5.85-1.93,2.56-3.89,5.2-5.75,7.76-.48.25-.99-.44-.57-.81,1.29-1.98,2.7-3.9,4.19-5.73,1.84-2.21,2.98-4.82,4.51-7.21,2.12-2.54,4.35-5.01,6.23-7.76,1.29-1.8,2.45-3.71,4.03-5.27.94-.92,1.88-1.89,2.51-3,1.09-1.75,2.6-5.83,4.45-2.22.26-1.18-.17-2.39.23-3.54.84-1.96,3.01-3.03,4.96-3.59,5.36-.27,6.93,6.32,8.71,10.22,1.33,3.73,1.2,7.72.66,11.58-.16,2.32-.91,4.6-1.28,6.87-.33,3.31-1.05,6.45-1.75,9.68-.39,1.89-.54,3.79-.89,5.68-.64,2.4-1.3,4.77-2.09,7.11-.65,1.86-1.89,3.4-3.04,4.96-1.65,2.58-2.86,5.43-4.67,7.92-2.3,2.65-4.77,5.27-6.44,8.37-.05.27-.33.44-.59.39Z"/>
  <path d="M55.85,48.45c-1.53-2.69-4.9-3.48-7.77-3.2-1.79.22-3.61.82-5.43.49-1.22-.22-2.19-1.21-3.22-1.78-1.47-.99-3.14-.93-4.77-.52-2.09.3-.15-2.84.61-1.13,1.85-.52,3.74.09,5.27,1.16.93.64,1.94,1.45,3.12,1.37,4.52-.64,10.26-1.65,13.02,3.05.36.53-.46,1.1-.83.56Z"/>
  <path d="M22.09,153.89c-1.73-.12-3.15-1.3-4.57-2.19-1.65-1.15-3.37-2.28-4.65-3.85-1.81-2.4-2.13-5.56-2.89-8.38-.68-4.09-1.14-8.2-1.36-12.34-.3-4.21.38-8.41.26-12.61-2.62-7.16-3.64-14.75-3.95-22.35-.02-3.94-1.02-7.81-.69-11.74-.23-4.05-1.31-7.99-1.26-12.08.1-1.21-1.21-6.19.73-5.57.44.14.43.82,0,.94-.07,2.72.49,5.43.44,8.16.08,2.02.68,3.94.89,5.93.4,2.59-.1,5.28.36,7.86.68,4.88.56,9.84,1.16,14.73.41,2.78.97,5.6,1.5,8.36.68,2.64,2.24,5.08,1.84,7.9-.66,7.92-.24,15.99,1.31,23.77.7,2.19.9,4.59,2.23,6.51,2.11,2.49,5.03,4.39,7.93,5.82,2.13.44,4.24-.35,6.31-.73,4.99-.83,7.22-6.13,10.04-9.75,2.02-2.3,3.44-5.01,5.12-7.55,2.3-2.96,4.44-6.01,6.03-9.42,2.75-4.41,4.82-9.48,8.91-12.81,3.87-2.47,5.95-6.7,9.46-9.52,3.05-1.94,4.79-5.08,6.55-8.12,2.74-3.56,3.59-6.9,2.45-11.3-.06-.36-.09-.73-.18-1.09-.24-.59.75-.95.95-.32.98,4.29,1.3,8.32-1.55,12-2.19,3.3-3.8,7.14-7.26,9.36-2.22,1.59-3.71,3.84-5.46,5.88-1.74,2.1-4.14,3.57-6.05,5.45-3.85,4.76-6.43,10.38-9.5,15.63-.81,1.47-2,2.68-2.96,4.04-1.69,2.3-2.92,4.91-4.7,7.15-5.83,7.55-6.55,11.88-17.41,12.25Z"/>
  <path d="M14.51,52.72c-.51-2.4-.91-4.86-1.35-7.25-.94-2.48-1.9-5.05-2.73-7.56-.78-1.76-2.52-2.83-3.02-4.73-1.72-8.19.23-17.45,5.98-23.69.86-.87,1.57-2.3,2.9-2.44.64.04.6,1.03-.04,1-.11-.02-.3.16-.36.2-4.89,4.62-7.82,10.96-7.97,17.7-.18,3-.4,6.52,1.6,8.97,1.8,1.71,2.37,4.11,3.1,6.39.56,1.47,1.28,2.89,1.63,4.43.34,2.27.78,4.52,1.23,6.77.14.62-.84.86-.98.22Z"/>
  <path d="M71.38,65.66c.27-3.61,1.41-7.23,3.93-9.92,1.6-1.41,3.06-2.95,4.47-4.55,1.55-1.56,3.56-2.66,4.87-4.45,3.1-3.91,4.72-8.29,6.24-12.97.5-1.74,1.25-3.45,1.52-5.23.16-2.02-.23-4.01-.72-5.95-.14-.44-.27-.88-.49-1.3-.31-.56.6-1.04.89-.46.18.33.3.69.42,1.05.62,2.06,1,4.24.92,6.39-.57,3.75-2.22,7.29-3.4,10.88-1.62,4.42-4.32,8.73-8.16,11.52-2.07,1.67-3.58,3.93-5.67,5.59-1.5,1.55-2.57,3.62-3.2,5.64-.27,1.23-.41,2.49-.63,3.73-.08.51-.88.55-.98.02Z"/>
  <path d="M24.26,81.02c-.27-.01-.5-.25-.48-.52.12-2.24,0-4.63-1.16-6.57.01.01.03.03.04.04,0,0,0,0,0,0-2.06-1.24-4.93.05-6.54,1.54-.04.59-.93.6-1.03.03-.07-.34.23-.66.45-.87,2.05-1.97,7.49-3.81,8.54,0,.37.94,1.48,6.23.17,6.35Z"/>
  <path d="M21.49,82.53c-3.18-.66-5.13-3.67-6.22-6.52-.75-.42.08-1.92.72-1.01,1.03,3.35,3.83,7.56,7.82,6.39.02,0,.03-.01.05-.02.01,0,.02-.01.03-.02.32-1.33,1.6-.59.85.53-.24.41-.74.52-1.18.58-.69.06-1.39.25-2.07.06Z"/>
  <path d="M50.95,86.52c-.84-.02-.7-1.03-.43-1.57,1.17-3.01,4.3-5.22,7.47-5.6,1.11-.09,2,.63,2.5,1.57.22.58,1.29,1.27.66,1.86-.23.16-.54.09-.7-.12-.49-.63-.83-1.36-1.37-1.95-.77-.67-1.93-.27-2.75.08-2.22.89-4.31,2.54-5.01,4.89.32.31.06.87-.38.85Z"/>
  <path d="M52.01,87.05c-.57-.08-1.18-.05-1.73-.19-.34-.19-.36-.73,0-.9.68-.18,1.44.18,2.16.09,2.79-.08,5.46-1.61,7.77-3.06.22-.16.54-.09.7.13.5,1.06-2.61,2.02-3.35,2.47-1.75.82-3.56,1.64-5.55,1.46Z"/>
  <path d="M30.52,130.82c1.75-.17,3.57-1,4.86-2.08,1.25-1.27,1.87-3.53.72-5.02-2.84-3.23-9.97-2.58-13.89-2.15-.09.09-.22.14-.36.13,0,0-.01,0-.02,0-.12.08-.28.11-.41.18-.41,2.09.4,4,1.73,5.57.57.82,1.04,1.78,1.86,2.36.83.7,1.96.47,2.95.66.87.12,1.72.35,2.61.33,0,0-.07,0-.07,0ZM27.63,131.44c-2.79.12-4.11-1.33-5.41-3.59-1.25-1.51-2.1-3.36-1.84-5.36.04-.35.02-.73.13-1.07.17-.36.59-.51.95-.62,4-.96,12-1.17,15.08,1.92,1.95,1.85,1.25,5.14-.56,6.84-2.35,1.93-5.41,2.72-8.35,1.88Z"/>
  <path d="M25.7,128.63c1.04-.79.68-2.74.29-3.79-.46.41-.71,1-1.08,1.48,0,.8.14,1.73.73,2.29,0,0-.02-.02-.03-.03.03.01.05.04.09.04ZM25.44,129.6c-1.08-.24-1.96-2.85-1.35-3.69,3.07-6.48,4.89,4.03,1.35,3.69Z"/>
  <path d="M32.04,129.74c-1.35-.51-1.4-2.77-.9-3.93.19-.43.88-.34.97.12.03.4.2.96-.26,1.16-.02.57.1,1.17.38,1.64,1.24-.79.88-2.62.51-3.79-.18.12-.33.28-.5.43-.47.44-1.15-.31-.67-.74.47-.56,1.46-1.11,1.96-.31.85,1.68.94,5.18-1.5,5.41Z"/>
  <path d="M37.19,137.81c-1.98-.85-3.06-2.94-5.01-3.81-5.71-1.71-12.45,1.45-17.64-2.25-.45-.25-.74-1.01-.08-1.19.32-.07.72.08.76.44,5.22,3.47,11.9.11,17.49,2.14,1.85.8,2.87,2.69,4.63,3.62.82.23.72,1.29-.14,1.05Z"/>
  <path d="M25.26,148.78c-3.83-.57-7.88-2.42-9.78-5.95-.74-1.78-.87-3.74-1.61-5.51-.6-1.76-.66-3.64-1.04-5.44-.18-.67-.16-1.93.81-1.83.47.08.55.77.11.95.32,2.59.67,5.18,1.62,7.61.53,2.04.72,4.29,2.48,5.7,2.05,1.98,4.68,3.03,7.46,3.47,1.97.15,3.91-.73,5.67-1.51,1.94-1.42,3.08-3.72,4.14-5.82.49-.71,1.24-3.65,2.28-3.17.22.14.3.47.14.69-1.7,2.81-2.71,6.03-5.09,8.39-1.89,1.57-4.73,2.48-7.19,2.41Z"/>
  <path d="M18.94,145.47c-3.13-2.81-2.67-7.29-2.07-11.06.17-.64.07-1.73.83-1.96.56-.07.94.7.38.99-.58,3.34-1.42,7.33.65,10.29.32.52,1.48,1.1.92,1.77-.2.18-.53.17-.71-.04Z"/>
  <path d="M32.99,144.82c-.26-.08-.41-.38-.32-.63.3-.89.6-1.92.88-2.79.31-1.98.6-4.39-.43-6.17-.27-.15-.58-.36-.45-.72.11-.37.56-.43.85-.23,1.09.78,1.2,2.34,1.26,3.58.19,2.31-.38,4.5-1.17,6.64-.09.26-.37.41-.63.32Z"/>
  <path d="M24.76,147.98c-.24-.12-.36-.43-.23-.67,1.83-3.4,2.39-7.7,1.3-11.38-.16-.81-2.27-2.28-1.2-2.86.32-.13.74.08.75.44,2.69,2.89,2.12,7.23,1.41,10.8-.23.77-1.05,4.03-2.04,3.66Z"/>
  <path d="M25.54,70.72c.18,0,.36,0,.52-.07-.48-2.26-8.61-1.52-10.42-1.05-.06.39-.63.46-.78.78,3.5.8,7.12-.29,10.68.34ZM25.27,71.72c-1.89-.2-3.74-.32-5.62-.11-1.34.06-7.36.62-5.42-2.05-.36-1.92,10.24-1.61,11.43-.78,1.71.9,2.15,3.17-.39,2.94Z"/>
  <path d="M51.55,79.95c1.85-1.08,3.61-2.37,5.77-2.84,1.16-.4,4.61-.79,3.89-2.55.01.02.02.04.03.05-1.34-1.12-3.82,1.05-5.24,1.5-1.44.56-2.7,1.31-3.77,2.42.01.13-.02.27-.12.37-.12.12-.23.24-.34.37,0,.05,0,.09,0,.14-.03.18-.16.32-.33.38h0s0,.1.03.14c.03.01.06.01.09.02ZM51.22,80.9c-2.08-.97.42-3.34,1.49-4.14.84-.67,1.87-1.16,2.85-1.56,1.65-.68,3.23-1.97,5.08-1.92,1.3.02,2.16,1.5,1.43,2.61-.87,1.51-2.9,1.7-4.39,2.16-1.59.47-3.18,1.06-4.48,2.11-.58.39-1.24.96-1.98.75Z"/>
  <path d="M18.16,79.91c-1.36-1.48-1.15-3.63-.49-5.38.26-.55.57-1.94,1.41-1.43.39.35.48,1.36-.27,1.27-.53,1.31-.99,2.85-.36,4.19.14.29.34.52.54.78.37.52-.45,1.1-.82.57Z"/>
  <path d="M21.43,82.11c-.33-.52.33-.8.62-1.11,1-1.17.99-2.78.52-4.17-.61.49-1.36.08-1.71-.51-.7-1.02-.35-2.37.26-3.35.28-.71,1.36-.86,1.23.11-.08.31-.19.73-.57.75-.34.7-.54,1.68.16,2.22,1.48-2.55,2.06,2.21,1.9,3.24-.04.89-1.33,3.73-2.41,2.82Z"/>
  <path d="M58.26,84.54c-.26-.08-.41-.37-.32-.63.38-1.11-.06-2.58-.94-3.32-.41-.71.68-1.09,1.01-.46.78.64,1.87,4.45.25,4.4Z"/>
  <path d="M53.1,86.43c-.69-1.21-.62-3.2.48-4.13.46-.17.99.14,1.44-.07.98-.34-.02-1.56.57-2.09.55-.32,1.45.21.86.82.31,1.58-.91,2.61-2.44,2.31-.02.05-.05.1-.05.09-.35.83-.45,1.83.03,2.62.3.57-.59,1.04-.89.46Z"/>
</svg>