<?xml version="1.0" encoding="UTF-8"?>
<svg id="Layer_1" data-name="Layer 1" xmlns="http://www.w3.org/2000/svg" viewBox="0 0 88.17 92.85">
  <path d="M70.31,58.37c-.87-.26-.1-1.5-.2-2.08.23-2.67.35-5.31.61-7.95.38-1.97.95-3.89,1.29-5.86.32-2,2.25-3.29,2.82-5.16.3-1.81.85-3.51,1.91-5,.12-1.32.22-2.66.12-3.98-.52-.15-.48-.91.05-1.02.31-.03.49-.1.75-.23,1.03-.45,1.6,1.16,2.54,1.03,2.3-1.25,2.8.39,4.39,1.61.48-.64,1.16-1.06,1.83-1.44.84-1.53.07-3.32.23-4.97-.14-1.53.42-2.96.53-4.43-.27-2.54-1.45-4.84-2.97-6.83-3.19-3.77-8.59-4.1-12.87-5.96-2.92-1.3-5.89-2.38-8.78-3.7-4.24-.95-8.63-1.14-12.96-1.31-4.77-.28-9.46.26-14.15,1.06-3.09.3-6.6.19-9.25,2-2.2.51-4.37-.69-6.56-.63-4.57.56-9.42,2.25-12.09,6.21-1.27,1.89-3.12,3.3-4.42,5.17-1.16,1.89-2.02,3.98-2.13,6.19.02.51.31,2.3.94,1.39.79-1.01,1.41-2.03,2.14-3.06.77-1.37,1.72-1.93,3.09-.94.41.23.8.23,1.23.33,1.2.19,2,1.13,2.69,2.03,1.03,1.52,5.87,4.85,4.69,6.66-.38.51-1.2-.11-.78-.63,0-.04-.02-.15-.02-.15-1.39-2.41-3.92-4.07-5.56-6.33-.91-.83-2.26-.56-3.22-1.32-.13-.06-.28-.14-.42-.12,0,0,0,0,0,0-1.43,1.3-2.07,3.34-3.55,4.62-.81.58-1.72-.21-1.94-1.03-.81-2.33.35-4.75,1.24-6.89.91-1.95,2.54-3.4,3.96-4.95,1.74-2.22,3.44-4.57,6.04-5.86,3.02-1.26,6.29-2.64,9.61-2.24,1.57.27,3.07.81,4.63.6,3.24-2.14,7.45-1.67,11.13-2.26,7.31-1.44,14.86-1.03,22.22-.14,2.78.03,5.24,1.22,7.73,2.34,1.93.85,3.98,1.51,5.86,2.47,3.85,1.16,8.09,2.11,11.25,4.71,2.34,2.38,4.1,5.64,4.21,9.02-.41,1.65-.64,3.37-.53,5.09.11,1.68.68,4.32-1.36,5.05-.54.3-.82.91-1.35,1.21-.73.24-1.32-.45-1.8-.89-.52-.45-.94-1.35-1.71-1.11-1.53.83-2.19.3-3.41-.69,0,0-.01,0-.01,0-.05.03-.11.05-.16.08.1,1.6.14,3.32-.26,4.87-.37.63-.92,1.17-1.11,1.88-.5,1.27-.42,2.79-1.22,3.93-.59,1.12-1.56,2.03-2.05,3.19-.89,3.54-1.69,7.09-1.83,10.74-.03,1.2-.18,2.49-.25,3.65-.17.63.1,1.98-.8,2.02Z"/>
  <path d="M15.82,37.62c-.13-.1-.27-.18-.42-.24.03-1.21.07-2.41.09-3.61.36-1.41-2.22-8.76-.22-8.2.38.18.64.7.23.99.07,2.16.9,4.22.95,6.39,0,1.8-.03,3.6-.06,5.4-.13-.28-.31-.53-.57-.73Z"/>
  <path d="M65.3,73.88c-.12-.02-.23-.05-.35-.07-.13-.04-.27-.08-.4-.11.57-1.32,1.25-2.61,1.72-3.94.44-1.33.59-2.73.95-4.09.82-1.97,1.67-3.91,2.03-6.04.13-.72.27-1.46.46-2.16.06-.27.29-.46.57-.42.78.19.23,1.11.16,1.61-.44,2.04-.74,4.18-1.76,6.02-1.12,2.75-1.2,5.82-2.78,8.43-.13.26-.26.52-.37.79-.08,0-.16,0-.23,0Z"/>
  <path d="M77.42,28.3c-.64-.02-.47-.83-.5-1.23-.06-3.66-1.13-7.29-2.67-10.58-1.38-1.78-2.64-3.68-3.77-5.61-.08-.47.52-.79.85-.43,1.27,1.93,2.47,3.87,3.88,5.68,1,2.19,1.77,4.59,2.3,6.95.32,1.56.37,3.14.42,4.73,0,.27-.24.49-.51.49Z"/>
  <path d="M83.83,25.12c-.84-.11-.32-1.21-.54-1.76-.99-4.17-3.6-11.31-9.02-9.69.09.29-.11.61-.42.64-1.07.27-1.47-.86-.47-1.33,5.48-2.65,9.25,4.03,10.47,8.48.16.83,1.16,3.43-.02,3.66Z"/>
  <path d="M11.88,22.81c-.63-.63.23-1.46.5-2.07,1.05-1.82,2.29-3.6,4.04-4.82,1.41-.9,2.35-2.19,3.54-3.31,1.19-1.13,2.69-2.1,3.38-3.63,1.09-2.46-2.4-1.25-3.66-1.39-.76-.01-1.46-.51-2.13-.77-2.62-.91-4.21,1.89-5.89,3.35-1.42,1.35-3.43,2.27-4.25,4.12-.35.69-.69,1.38-1.03,2.07-.12.24-.4.37-.66.26-.24-.11-.38-.41-.26-.66.79-1.51,1.37-3.22,2.74-4.32,1.69-1.29,3.36-2.6,4.74-4.22,1.22-1.32,3.16-2.24,4.94-1.54.79.31,1.41.82,2.27.71,5.29-1.02,5.57,2.17,2.14,5.29-1.88,1.45-3.25,3.44-5.2,4.78-1.95,1.34-3.21,3.39-4.34,5.43.46.56-.41,1.1-.88.72Z"/>
  <path d="M37.33,71.05c-.78-3.52-2.08-6.98-2.05-10.64.12-5.08,1.62-9.99,3.71-14.59.83-1.76,2.48-2.89,3.75-4.3,1.44-1.89,2.84-3.83,4.15-5.8,1.49-2.69.84-5.79.82-8.7-.07-1.5.55-2.92.42-4.42-.18-3.23-1.35-6.24-2-9.38-.33-1.25-.6-2.43-1.23-3.51-.6-1.04-1.53-1.97-1.36-3.25,1.51-4.58,7.93-3.33,11.05-1.18,2.05.75,2.88,2.68,3.35,4.66,3.08,7.59.07,16.15,2.93,23.72.93,2.08,1.75,4.21,2.61,6.31,1.69,2.97,3.82,5.73,5.07,8.94,1.11,2.31,1.88,4.74,2.24,7.29.05.27-.18.53-.44.56-.28.03-.51-.17-.55-.44-.35-2.11-.81-4.16-1.77-6.08-1.27-3.39-3.34-6.38-5.25-9.43-1.22-2.96-2.6-5.88-3.58-8.93-1.53-6.68.3-13.76-1.8-20.36-.71-2.09-1-4.64-3.41-5.43-2.05-1.39-4.74-2.03-7.16-1.61-.92.48-2.23,1.13-2.33,2.28.31,1.61,1.78,2.76,2.09,4.43.92,3.86,2.31,7.68,2.53,11.67.09,1.41-.49,2.76-.43,4.16.04,2.93.62,6-.72,8.74-1.25,2.21-2.88,4.21-4.37,6.27-1.18,1.4-2.82,2.48-3.68,4.12-2.64,5.82-4.54,12.34-3.16,18.71.48,2.01,1.12,3.98,1.53,6,.08.58-.83.79-.98.18Z"/>
  <path d="M62.46,55.6c-.78-.25-1.63-.52-2.2-1.14-.81-1.13-1.03-2.82-.41-4.09.58-1.02,1.84-.36,2.38.36.45.46-.27,1.17-.71.7-.21-.23-.47-.53-.77-.59,0,0,0,0,0,0-.44.91-.24,2.03.22,2.88.36.47.96.6,1.47.83,1.08.5,2.47-.91,2.61-1.9.25-3.85-2.86-6.89-5.89-8.73-1.62-.61-3.48-.87-5.2-.74-3.67.28-5.77,3.32-7.47,6.22.34.29.1.89-.35.87-2.25-.2,1.74-4.55,2.29-5.36,1.34-1.62,3.31-2.4,5.34-2.71,1.87-.2,3.87.12,5.64.73,1.36.82,2.7,1.79,3.85,2.89,1.82,2.23,4.08,5.88,2,8.55-.68.77-1.72,1.53-2.8,1.23Z"/>
  <path d="M48.54,55.68c-2.43-.24-3.42-3.31-3.32-5.43.13-.6.29-1.5.7-1.95.39-.28.92.07.8.54-1,1.84-.41,4.4,1.21,5.66,1.98.74,5.2-.93,5.03-3.22-.12-.59-.56-1.62-1.28-1.31-.53.26-.78,1.36-1.48.92-.62-.64.61-1.51,1.1-1.84,1.16-.57,2.27.6,2.55,1.66.81,2.95-2.67,5.16-5.3,4.98Z"/>
  <path d="M52.93,64.03c-1.77-.48-3.12-2.12-4.16-3.55-.82-1.98-1.32-4.17-2.9-5.73-.47-.01-.74-.68-.59-1.08.5-.81,1.16.21,1.51.62,1.27,1.34,1.96,3.1,2.52,4.82.31,1.22,1.22,1.98,2.07,2.82.59.54,1.24,1.15,2.07,1.16,2.19.02,4.2-1.13,6.17-1.92,1.5-1.41,3.41-2.58,4.42-4.42.34-.64.42-1.38.56-2.08.05-.27.3-.46.57-.42.27.04.47.3.42.57-.15,2.96-2.55,4.67-4.55,6.48-.88.96-2.16,1.22-3.3,1.73-1.48.68-3.15,1.24-4.79,1Z"/>
  <path d="M39.9,73.48c-1.02-.37-1.79-1.18-2.39-2.06-.49.01-.55-.55-.55-.93,0-.28.24-.49.51-.49.66.13.81.99,1.28,1.4,1.5,2.09,3.83,1.08,5.73.25,2.25-.78,3.97-2.23,5.92-3.51,1.79-.97,3.96-1.05,5.94-.78,3.08.5,4.87,3.51,7.85,4.23.48.17.88.34,1.33.4.27,0,.5.23.49.51,0,.29-.27.52-.56.49-1.34-.26-2.64-.82-3.87-1.39-1.56-1.03-2.86-2.46-4.68-3.06-3.17-1-6.28.24-8.68,2.31-1.43,1.02-3.12,1.61-4.73,2.27-1.14.39-2.42.8-3.6.36Z"/>
  <path d="M44,73.84c.06,0,.12-.01.18-.02-.05.01-.1.03-.14.04-.01,0-.02-.01-.03-.02Z"/>
  <path d="M36.83,33.58c.72,0,1.32-.54,1.88-.87-.7-1.07-.69-2.48-1.23-3.63-2.2-4.08-7.1-1.02-10.33-.19,2.02,3.4,6.02,4.6,9.75,4.69,0,0-.07,0-.07,0ZM36.7,34.57c-3.72-.15-7.57-1.25-9.86-4.39-.47-.53-1.13-1.5-.38-2.07,3.28-.94,7.11-3.44,10.37-1.27,1.83,1.07,1.93,3.31,2.58,5.11.48.16.4.86-.06.97.38.84-1.98,1.74-2.65,1.64Z"/>
  <path d="M32.14,33.76c-1.56-.6-1.87-2.27-1.82-3.76.07-1-.18-3.08,1.24-3.1.64,0,.63,1,0,1-.33,1.34-.41,2.95.11,4.24.21.3.56.55.88.7.59.26.19,1.19-.4.92Z"/>
  <path d="M34.58,33.84c-.28-.1-.39-.44-.3-.69-.01.05-.02.1,0,.16-.02-.27.16-.52.44-.56.1-.01.2,0,.28.05,0,0,0,0,0,0,0,0,0,0,0,0,0,0,0,0,0,0,1.32-.5,1.68-2.02,1.19-3.24-1.08-.14-1.92-1.33-1.98-2.37,0-.65,1.02-.63,1,.02.04.48.42.95.76,1.25.28.16.61.11.86.33.76.93.7,2.48.2,3.53-.5.77-1.47,1.66-2.44,1.53Z"/>
  <path d="M65.9,32.16c-.09-2.82,3.65-4.31,6.07-4.02,1.66-.02,2.54,1.5,3.31,2.73.33.56-.55,1.06-.87.49-.52-.75-.91-1.6-1.71-2.07-2.01-.58-4.39.13-5.59,1.88-.21.29-.29.53-.22.87.08.64-.92.76-.99.12Z"/>
  <path d="M69.87,35.04c-1.88.01-3.89-1.58-3.98-3.5.13-.83,1.46-.4,1.02.34.94,2.59,4.34,2.7,6.31,1.35.54-.33.79-1.51,1.54-1.07.22.18.24.48.08.7-1.02,1.74-3.07,2.29-4.98,2.19Z"/>
  <path d="M72.21,34.2c-.61-.29-.07-1.01-.02-1.44.2-.86-.02-1.7-.38-2.47-.25-.51-.55-.97-.91-1.4-.22-.69.72-.94,1.02-.34,1.16,1.52,1.79,3.58.94,5.39-.09.26-.42.36-.66.26Z"/>
  <path d="M68.43,34.46c-.73-.89-.27-2.17.46-2.91-1.05-.06-1.67-1.76-1.34-2.64.47-.8,1.65.37.96.9.1.28.19.48.36.69.86-.84,1.59-.02,1.27.96-.29.77-1.35,1.32-1.02,2.25.47.49-.18,1.22-.69.75Z"/>
  <path d="M64.42,73.5c-.08-.48.29-1.21.85-.9.23.14.31.45.17.68,0,.52.09,1.05.16,1.59-.1-.04-.21-.06-.32-.07-.21-.02-.45,0-.67.07-.07-.46-.16-.92-.19-1.37Z"/>
  <path d="M46.54,92.73h.01c-2.27-.23-4.7-.11-6.86-.88-3.95-2-6.52-5.68-7.89-9.79-2.39-5.1-5.46-9.92-6.64-15.48-.68-2.1-2.53-3.5-3.48-5.46-.69-1.05-2.01-1.46-2.73-2.5-1.71-3.14-2.25-6.88-2.95-10.36-.67-2.51-.58-5.12-.68-7.7-.16-1.46-.21-2.94.17-4.38-.27-.63.83-1.06,1.02-.35-.88,6.84.46,13.87,2.43,20.43.36,1.7,1.69,2.62,2.99,3.59.61.57.94,1.38,1.4,2.05.8,1.18,1.85,2.2,2.45,3.49,1.52,6.5,5.17,12.11,7.74,18.19,1.18,3.3,3.85,5.99,6.95,7.5,3.79.61,7.79,1.03,11.57.47,3.48-.93,10.73-2.95,8.77-7.81-.05-.09-.09-.18-.11-.28.25.08.5.11.75.11.12,0,.24,0,.37-.02,2.23,6.26-7.81,9.28-13.52,9.28-.65,0-1.24-.04-1.75-.12Z"/>
  <path d="M46.53,82.57c-.83-.66-6.62-7.58-3.94-7.6.43,0,.66.57.34.86,1.44,2.88,3.43,5.85,6.25,7.49,3.67.83,7.64.65,11.37.09.03.01.06.03.09.04.26.1.53.13.8.13.07,0,.14,0,.21,0,.02.03.03.07.04.11.22,1.16-4.62,1.14-7.29,1.13-.71,0-1.27,0-1.53.01-2.32-.02-4.78-.35-6.34-2.26Z"/>
  <path d="M53.67,77.02c-2.24-3.38-7.33-3.49-10.58-1.66-.19.15-.22.39-.35.58-.26.36-.86.2-.91-.24.35-1.81,2.67-2.03,4.16-2.34,3-.57,6.37.21,8.25,2.75.65.54.12,1.53-.58.9Z"/>
  <path d="M51.81,74.67c-.32-1.55,6.25-1.59,7.5-1.88,1.96-.18,4.25.1,5.73,1.48.22.13.26.35.21.54-.29-.02-.61.04-.9.17-1.21-1.01-2.93-1.3-4.44-1.22-2.36.23-4.87.42-7.13,1.02-.06.23-.26.34-.47.34-.24,0-.48-.15-.51-.43Z"/>
  <path d="M51.81,88.68c-2.08-.09-4.21.03-6.24-.51-1.92-.78-3.96-1.64-5.45-3.12-1.59-1.88-1.81-4.48-2.44-6.77-.44-1.96-.59-3.98-.92-5.96-.02-.6-.51-1.69.3-1.9.54-.07,1.19,1.03.63,1.37.76,4.2.79,8.95,3.17,12.61,2.67,2.47,6.3,3.41,9.87,3.27,3.37.06,6.72-.14,10.05-.57.64-.08.76.92.12,1-3.01.41-6.08.56-9.11.6Z"/>
  <path d="M60.5,83.93c-.05-.42.35-.6.72-.58,1.34-.46,2.76-.74,3.92-1.57.27-.23.39-.63.4-.94.07-1.75-.42-3.48-1.05-5.09-.27-.58-.8-1.6.14-1.84.5-.22.94.49.52.83.84,2.25,2.08,5.04,1,7.38-.69.96-2.02,1.31-3.04,1.66-.72.11-2.28,1.17-2.61.14Z"/>
  <path d="M52.44,85.21c-2.17-.1-4.26-.56-6.32-1.23-1.06-.37-2.17-.77-2.9-1.67-.96-1.16-1.76-2.42-2.88-3.44-1.43-2.02-2.49-4.4-3.25-6.71-.25-.76.56-1.5,1.05-.64.32.34.81,1.02.19,1.33.84,1.69,1.5,3.49,2.53,5.08,1.31,1.25,2.28,2.81,3.51,4.11,2.42,1.53,5.44,1.94,8.23,2.19.64.08.49,1.09-.15.99Z"/>
</svg>