<?xml version="1.0" encoding="UTF-8"?>
<svg id="Layer_1" data-name="Layer 1" xmlns="http://www.w3.org/2000/svg" viewBox="0 0 71.25 75.59">
  <path d="M8.52,32.11c-6.1-1.53-7.2-10.26-7.75-15.56C.16,12.58-.42,8.59.43,4.62c.27-1.33,1.27-2.3,1.85-3.47,1.06-2.55,2.37-.22,3.27,1.05,1.66,3.41,3.03,7.5,6.64,9.34,1.39.59,2.77,1.45,3.86,2.46,4.1,2.45,3.81,7.56,3.55,11.74,0,.4.06,1.01-.5,1.02-.27,0-.5-.22-.5-.49.05-3.14.57-6.47-.95-9.36-.46-.94-1.43-1.42-2.16-2.09-.48-.41-1.05-.91-1.57-1.24-.92-.6-1.94-1-2.89-1.55-1.73-1.1-3.01-2.83-4.07-4.56-1.26-2.09-1.73-4.61-3.5-6.37-.55,1.23-1.55,2.22-1.98,3.5-.81,3.61-.47,7.27.17,10.87.64,5.29,1.08,12.88,6.45,15.54.38.16.75.12,1.1-.02.16-.5.98-.42,1.04.11.02.81-1.08,1-1.71,1.02Z"/>
  <path d="M15.13,26.61c-.15-7.31-2.28-9.47-8.44-12.88-.92-.54-3.71-3.34-3.07-4.37.34-.36.98,0,.93.46.36.66.83,1.33,1.31,1.88,1.46,1.57,3.54,2.3,5.2,3.64,3.1,1.79,4.74,5.31,4.86,8.81.08.82.16,1.64.21,2.46.02.27-.23.5-.5.5-.28,0-.49-.22-.5-.49Z"/>
  <path d="M52.16,42.92c-.11-.25,0-.55.25-.66,2.96-1.43,5.66-3.36,8.12-5.5,2.06-2.35,3.52-5.25,5.66-7.54,1.68-3.13,3.04-6.46,3.69-9.97.13-.76.51-1.54.32-2.32-3.62,1.97-7.19,4.39-11.32,5.09-1.63.34-3.3.39-4.95.46-2.78.58-5.79,1.64-7.49,4,.35.49-.31,1-.77.77-.41-.18-.38-.7-.21-1.05,1.67-2.81,5.17-4.01,8.2-4.7,3.68-.08,7.39-.59,10.61-2.48,1.78-.91,3.56-1.84,5.28-2.88.9-.67,1.57-.24,1.68.84-.29,4.16-1.95,8.14-3.71,11.89-1.41,2.33-3.4,4.24-4.76,6.62-1.76,2.84-4.88,4.58-7.57,6.39-.76.24-2.5,1.9-3.05,1.02Z"/>
  <path d="M47.48,32c-1.56-1.43,3.18-4.19,4.24-4.89,2.34-1.43,5.01-2.26,7.7-2.71,2.42-.27,4.97-.7,6.52-2.79.19-.2.51-.2.71-.02.58.71-.94,1.57-1.37,2.05-1.99,1.56-4.66,1.47-7,1.98-3.73.92-7.66,2.61-10.09,5.67,0,0,0,0,0,0,.33.45-.25,1.04-.7.7Z"/>
  <path d="M18.49,26.85c-.24-.13-.33-.44-.2-.68,1.4-1.63,3.27-2.43,5.31-2.84-.07.37-.14.74-.21,1.1-1.36.34-2.65.87-3.79,1.72-.29.23-.49.77-.87.77-.07,0-.15-.02-.24-.07Z"/>
  <path d="M29.31,75.44c-7.83-2.61-9.87-11.9-13.77-18.25-1.79-2.42-3.49-5-4.7-7.76-1.01-2.84-1-6.02-.61-8.98.36-1.54.38-3.59.1-5.13-.35-1.5-1.95-2.39-2.23-3.86,0-.64.99-.66,1-.01.55,1.11,1.66,1.98,2.05,3.23.76,2.32.23,4.88-.12,7.23-.12,3.38.02,7,2.13,9.81,1.55,2.91,3.73,5.33,5.06,8.35,2.29,4.8,4.47,9.93,8.82,13.25,3.88,2.86,9.43.55,12.03-3,1.04-2.65,2.01-5.27,3.38-7.77.81-2.07,2.43-3.57,4.11-4.93,1.77-1.83,3-4.2,4.39-6.3,1.09-2.8,1.03-6.05.61-8.97-.05-.27.16-.53.42-.57,1.01-.13.8,3.22.86,3.95-.19,1.93-.04,3.97-.88,5.77-.66,1.35-1.6,2.54-2.42,3.8-1.39,3.05-4.85,4.37-6.08,7.47-1.55,2.67-2.4,5.57-3.7,8.32-2.46,3.13-6.44,5.07-10.45,4.37Z"/>
  <path d="M22.37,50.87c.16,0,.33-.02.48-.08-.02,0-.04.01-.06.02,0,0-.01,0-.02,0,0,0,.03,0,.02,0,.26-.11.51-.41.54-.69.17-2.01-3.36-2.58-4.67-1.63,0,.02,0,.04,0,.06-.03.14-.13.26-.25.33.3.29.29.83.59,1.11.98.63,2.26.78,3.37.88ZM21.6,51.81c-1.36-.29-3.3-.38-3.81-1.94-.13-.33-.37-.75,0-1.01-.7-.42.02-1.13.52-1.34,1.41-.8,3.17-.58,4.55.18,2.53,1.16,1.59,4.81-1.29,4.1,0,0,.01,0,.01,0Z"/>
  <path d="M42.06,55.06c1.68-.18,4.46-.52,4.33-2.74-.72-.14-1.47-.26-2.19-.1-.72.45-1.5.98-2.08,1.58-.11.24-.41.37-.66.26.13.22.04.46-.12.64.1.33.41.38.72.36ZM41.75,56.05c-.97.04-1.88-1.26-1.14-2.04.14-.19.39-.27.6-.18-.25-.63.56-1.05.95-1.41,1.01-.89,2.2-1.55,3.58-1.21,2.15-.06,1.92,1.94.94,3.22-1.23,1.26-3.25,1.57-4.94,1.62Z"/>
  <path d="M38.16,48.66c.8,0,1.45-.46,2.25-.4,0,0,0,0,0,0,.88-.5,1.69-1.2,2.34-1.97.19-.28.49-.61.34-.97h0c-1.34-.3-2.64.35-3.77,1-.74.43-1.66,1.04-1.6,1.99.06.2.22.37.44.35ZM39.32,49.47c-1.42.54-2.97-.11-2.53-1.83.6-1.84,2.72-2.64,4.4-3.24,1.96-.54,3.94.2,2.43,2.4-.5.73-3.57,3.55-4.3,2.67Z"/>
  <path d="M26.73,46.68s0-.01,0-.02c-.96-.95-1.39-2.43-2.5-3.15-.41-.09-.96-.18-1.21.21,0,0,0-.01.01-.02,0-.01.02-.02.03-.04-.01.02-.03.05-.04.07h-.01c-.13.23-.07.49.03.68,0,.01.02.03.03.05,0,0,0,0,0,0,.85,1.14,2.39,1.72,3.66,2.22ZM26.78,47.7c-8.9-2.48-3.28-8.34-.5-3.34.37.84,1.37,1.41,1.46,2.31-.02.57-.34,1.07-.96,1.04Z"/>
  <path d="M19.85,50.69c-.59-.71-.76-1.68-.42-2.54.12-.34.3-.79.71-.82.65-.04.95,1.14.2,1.22-.21.59-.04,1.14.34,1.59.36.54-.48,1.09-.84.55Z"/>
  <path d="M21.81,50.6c-.38-.08-.44-.48-.36-.8-.04-.49-.38-.9-.75-1.17-.31-.34.04-.94.48-.82.89.19,2.03,2.72.62,2.79Z"/>
  <path d="M43.13,54.95c-.64-.43-1.01-1.22-.72-1.97.08-.65.98-.94,1.11-.17,0,.36-.41.71-.11,1.04.3.27.8.64.42,1.06-.19.21-.5.21-.71.04Z"/>
  <path d="M44.65,55.04c-.56-.21-.21-.81-.12-1.2.08-.5-.2-.99-.5-1.35-.77.04-.62-1.24.11-1.09.98.37,1.57,1.7,1.36,2.71-.09.42-.28,1.11-.84.93Z"/>
  <path d="M32.41,70.18c.4,0,.69-.22.97-.46,1.2-1.25,2.49-2.95,1.96-4.78,0,0,0,0,0,0-1.84-.41-3.68-.08-5.42.54-.16.47-.93.35-1.06.82.95,1.37,1.65,3.69,3.55,3.88ZM32.03,71.17c-2.11-.39-2.98-2.7-4.02-4.33-.43-.69.1-1.5.77-1.78.1-.29.42-.4.68-.48,1.85-.66,3.81-1.05,5.76-.68.69,0,1.16.55,1.2,1.21.1,1.22-.12,2.53-.89,3.52-.84,1.17-1.85,2.79-3.5,2.54Z"/>
  <path d="M30.53,69.43c-.02-.48-.04-.91-.13-1.36-.18-.33.03-.79.41-.8.86.05.61,1.49.71,2.1.04.65-.96.71-1,.06Z"/>
  <path d="M32.92,67.87c-.2-.53.15-1.23.78-1.02.41.07.54.63.21.88.07.61-.87.76-.99.15Z"/>
  <path d="M44.82,27.71c-5.7-1.9-11.54-3.68-17.61-3.88-1.12-.09-2.19.23-3.24.53-.62.14-1.34,0-1.88.33-.53.36-1.09-.49-.55-.84.66-.47,1.53-.35,2.29-.49.99-.3,2.03-.6,3.07-.54,4.59.17,9.14,1.05,13.54,2.37,1.71.57,3.36,1.32,5.13,1.65.5-.35,1.07.4.61.79-.39.34-.92.17-1.36.06Z"/>
  <path d="M30.3,73.7c-.48-.71.75-1.1,1.05-1.56.09-.44-.11-.86-.02-1.3.17-.9,1.6-.35.98.39.11.67.12,1.45-.52,1.87-.42.29-.97,1.12-1.5.6Z"/>
  <path d="M33.79,73.07c-.95-.17-2.44-.37-2.55-1.56-.02-.34.09-.74.46-.83.48-.09.72.44.55.84.49.64,2.03.19,2.07,1.08-.02.26-.26.5-.53.46Z"/>
</svg>