<?xml version="1.0" encoding="UTF-8"?>
<svg id="Layer_1" data-name="Layer 1" xmlns="http://www.w3.org/2000/svg" viewBox="0 0 85.98 94.15">
  <path d="M31.74,66.78c1.69-.74,2.9-1.68,4.33-2.85.5-1.09,1.39-2.33.73-3.51-.82-.65-1.62-1.39-2.54-1.88-.47-.09-.94-.26-1.4-.38-.22-.03-.48-.01-.63-.21-1.7.15-3.51.96-4.56,2.34-.23.98-.67,2.13-.3,3.09.08.12.13.26.25.36.32.28.45.72.71,1.05.31.6.55,1.36,1.23,1.6.68.39,1.49.06,2.18.41ZM31.47,67.75c-.5-.25-1.08-.07-1.61-.21-1.08-.23-1.97-1.02-2.29-2.09-.42-.86-1.26-1.43-1.3-2.42-.09-1.13.16-2.34.62-3.36.58-.94,1.61-1.37,2.48-1.98.98-.49,2.06-.63,3.11-.83.2,0,.38.12.46.3,1.35.24,2.56.77,3.53,1.73,1.33.68,2.02,2.3,1.31,3.68-.38.82-.6,1.8-1.31,2.4-.64.4-1.23.81-1.8,1.3-.54.53-1.22.85-1.92,1.1-.39.21-.8.53-1.27.37Z"/>
  <path d="M27.56,64.49c-.09-.62.65-.46.9-.83.58-.69.46-1.56-.22-2.1-.15-.01-.36-.02-.49,0-.08.02-.17.04-.25.07-.04.02-.09.04-.13.06-.21.56-1.11.31-1.02-.28.04-.3.35-.52.61-.63.77-.37,1.83-.35,2.33.45,1.1,1.13.46,3.49-1.16,3.7-.26.06-.53-.17-.56-.43Z"/>
  <path d="M35.45,64.16c-.91-.04-1.78-.31-2.68-.42-1.6-.43-2.64-1.71-1.43-3.18.75-.64,3.5-1.09,3.36.44-.19.44-.7.33-.96.03-.57-.18-1.16.02-1.68.25-.09.22-.25.4-.28.62.16.3.45.52.74.69.83.29,2.23.51,3.11.56.29-.01.46-.27.7-.4.56-.33,1.07.55.5.86-.39.33-.86.58-1.38.54Z"/>
  <path d="M36.92,62.38c-.54-.58-1.15-.9-1.86-1.18-.43-.19-.84-.52-1.33-.47-.53.19-.99-.51-.52-.88.64-.33,1.43-.01,2.02.32.88.37,1.75.79,2.4,1.5.46.45-.25,1.17-.71.71Z"/>
  <path d="M29.76,72.97c-.64-.62.46-1.2.88-1.54.5-.48.81-1.15,1.01-1.75.08-.66-.3-1.37-.09-2,.18-.31.61-.31.83-.06.25.25.07.6.17.9.38,1.59-.55,3.28-1.88,4.12-.23.28-.56.62-.92.34Z"/>
  <path d="M36.26,72.35c-1.51-.03-3.16-.33-4.06-1.67-.23-.35-.7-.7-.53-1.16.1-.26.43-.37.69-.26.36.21.49.76.81,1.03.67.84,1.75.98,2.74,1.05,1.23.04,2.49.05,3.71-.08.53.03,1.46-.45,1.63.31.04.26-.16.54-.43.56-1.55.23-3.01.25-4.56.23Z"/>
  <path d="M14.19,81.56c-.87-1.13-.91-2.8-1.55-4.08-1.38.59-1.03-2.13-1.35-2.86h0c-1.04.09-.85-1.27-1.25-1.86-1.71.75-.91-2.8-1.2-3.71-.97-.09-.39-1.33-.15-1.87.8-1.49.75-3.25,1.31-4.84-.41-.81-.12-1.81-.16-2.69-.53-.56-.54-1.39-.61-2.12-1.75.2.32-5.26.22-6.36-.01-.78-.35-1.51-.49-2.28-1.56,1.92-2.72,4.21-4.3,6.08-1.51.38-1.19-2.92-.89-3.76-.76-.69-.38-1.91-.36-2.82-.13-.02-.26-.09-.37-.17-.11-.09-.2-.21-.28-.33-.76.15-2.96,1.58-2.78-.06,1.15-1.73,3.25-2.66,4.71-4.13,0,0,0,0,0,0,.08-.29.22-.55.36-.81.17-.3.33-.61.48-.92,0,0,0,0,0,0-2.77-.58-1.08-2.38.38-3.36-1.09-1.19,1.95-2.11,2.74-2.48-.91.03-4.07.77-3.55-.93,1.11-.82,2.51-1.29,3.79-1.82.4-.18.85-.12,1.27-.06,1.23,0,2.42-.14,3.5-.71-.59-.12-2.04-.15-1.47-1.09-2.48-.47-5.01.11-7.53-.01-.73.13-1.23-.68-.6-1.18,1.33-.88,2.98-1.1,4.52-1.4-.95-.05-4.38-1.23-2.49-2.31-6.16-2.27,6.18-2.46,7.55-2.39-1.44-.77-2.75-1.84-4.31-2.35-.87-.11-4.78-.97-2.96-2.2,2.72-.66,5.74-.82,8.5-.31,3.84.98,7.18,3.06,10.51,5.11,0,0,0,0,0,0,.18-.87.05-1.75.09-2.62-1.05-.56-2.37-.51-3.39-1.12-.81-1.37,2.24-.82,2.94-.98-.11-.49-.26-.97-.4-1.45-.02-.08-.03-.16-.03-.24-1.07-1.12-2.13-2.21-3.67-2.63-.55-.35-2.02-.43-1.7-1.35.09-.16.22-.25.4-.29,1.23.01,2.47.27,3.7.19-.07-.86-.84-1.77-.34-2.6.49-.67,1.37-.29,2-.08.38-.64.11-1.6.64-2.06,1.74-.92,5.38,7.98,6.39,9.47.23-3.03.19-6.13.33-9.15-.41-1.86-.2-4.12-1.28-5.7-.23-.32,0-.83.41-.82.79.16,1.23,1,1.88,1.42.35-1.26.59-2.67,1.23-3.8,1.16-.54,1.03,1.35,1.13,2.04.42-.84.75-1.74,1.22-2.55.09-.12.22-.18.37-.2,1.11-.02.55,2.67.66,3.45-.12,3.74-.4,7.48-.09,11.21,1.7-3.42,3.11-6.93,5.83-9.73.54-.63,1.16-1.19,1.74-1.79.12-.21.4-.28.62-.2.25.11.38.41.27.66-.58,1.65-1.12,3.31-1.46,5.02.53-.3.87-.97,1.48-1.08.9.11.31,1.11.04,1.57.55-.17,1.39-.88,1.8-.16.18.41-.16.82-.37,1.16-.38.6-.71,1.31-.81,2,.65-.3,7.94-4.95,6.65-2.24-1.81,1.03-3.06,2.34-4.18,4.04,2.35-.38,4.92-.36,7.04.83.41.25,1.08.76.73,1.29-.26.35-.73.21-1.1.22-2.81-.03-5.81.89-7.94,2.74,4.44.15,8.62-1.8,13.05-1.48.84.09,6.18.13,4.25,1.71-1.15.2-2.34.18-3.46.59.44.29.81.42,1.25.65.3.22.25.74-.11.88-1.3.26-2.71-.06-3.95.58,3.29,1.54,1.78,2.57-1.01,1.96-.45-.07-.89-.16-1.35-.18-.26.05-.52-.1-.6-.35-.07-.26.09-.55.35-.62.83-.09,1.65.2,2.48.27-2.7-1.43.58-2.58,2.12-2.55-1.22-1.13.47-1.68,1.43-1.84-5.23-.93-10.43,2.18-15.54,1.13-.65-.49.06-1.17.46-1.56,2.11-1.8,4.94-2.74,7.69-2.93-1.5-.62-3.13-.62-4.71-.49-.86-.02-1.78.54-2.6.22-.68-.48.17-1.03.55-1.37.28-.84,1.1-1.38,1.56-2.12-.94.34-3.24,2.48-4.02,1.48-.31-.97.2-2.05.63-2.91-.55.28-1.62.54-1.64-.37-2.63,1.51-.53-3.34-.36-4.38-1.39,1.62-2.79,3.36-3.77,5.21-.79,1.68-1.38,3.48-2.45,5.02-2.99,4.46-1.25-12.01-1.49-13.16-.33.65-.55,1.38-1.07,1.91-.93.7-1.18-.44-1.16-1.17-.34,1-.5,3.52-2.05,2.11.88,3.47.52,6.96.49,10.46-.04,1.28-.03,2.57-.29,3.84-.06.3-.2.71-.53.81-.69.19-.96-.72-1.24-1.18-1.55-2.92-2.97-5.96-4.87-8.67-.33,1.76-.67,2.2-2.42,1.52.49,1.65,1.17,3.27-1.36,2.98.53.3,1.42.47,1.56,1.13.52.66,1.84,1.28,1.64,2.22.16.72.94,2.24-.26,2.39.56.2,1.65.69,1.05,1.41-.06,1.01.43,3.56-1.17,3.38-2.41-1.11-4.49-2.96-6.97-3.92-1.4-.44-2.75-1.03-4.15-1.39-2.23-.26-4.39-.11-6.57.18,1.08.49,2.31.37,3.31,1.05,1.65.91,3.23,1.95,4.89,2.84.3.16.34.63.05.83-1.31.29-2.77.01-4.13.08-1.8-.04-3.56.32-5.35.44.66.35,1.63.45,2.01,1.16.23.77-.7.73-1.2.69,1.04.63,2.48.18,3.28,1.17.4.58-.26,1.37-.9,1.1-1.16.21-2.26.37-3.37.72,1.47.14,7.64-.91,7.67,1.14.61.08,1.66.34,1.44,1.15-1.31,1.21-3.41,1.51-5.16,1.53-1.13-.22-2.14.57-3.16.97.8,0,6.19-.97,5,.79-1.54.71-3.39.9-4.83,1.84.45.15.45.8.06,1.01-.76.54-1.58,1.06-2.14,1.82,1.19.44,2.16.46,1.22,1.96-.31.52-.52,1.09-.8,1.62-1.06.96-2.2,1.83-3.32,2.71.49-.22,1.16-.25,1.45.3,1.57-.83.5,2.13.73,2.86.53-.1.73.5.5.9-.22.79-.43,1.6-.29,2.4,1.23-1.8,2.37-3.62,3.7-5.32.21-.24.47-.45.8-.46.2,0,.39.11.53.24.55.83.62,1.97.86,2.93-.07,1.74-.65,3.45-.87,5.18,1.03,0,.47,1.65.75,2.29.04.3.14.55.39.72.29.74-.01,1.61.09,2.4.23.13.35.4.3.66-.22.75-.44,1.52-.6,2.29-.19,1.23-.43,2.39-1.03,3.49.72,1.09.31,2.61.48,3.86,1.05-.08,1.19,1.1,1.41,1.86,1.27.11.92,1.84,1.19,2.74,1.15-.37,1.5,2.6,1.88,3.4.05-.45,0-1.25.65-1.19.42.05.71.64.37.96-.06.75-.17,2.43-1.29,2.04Z"/>
  <path d="M57.94,62.7c-.35-.03-.61-.31-.75-.61-.55-1.2-.65-2.54-.77-3.84-.27-2.43-.55-4.9-1.09-7.28-.26-1.28-.61-2.61-1.63-3.5-2.01-1.71-5.09-1.48-7.24-.23-.85.85-.93,2.22-1.26,3.31-.09.44-.14.78-.14,1.18-.16.89-1.22.49-.99-.34.26-1.65.51-3.52,1.62-4.84,2.67-1.79,6.83-1.91,9.1.59,2.87,4.16,1.8,9.82,3.27,14.43,1.01-.85,1.2-8.1,3.04-6.44-.09-.88-1.18-4.85.7-4.05.04-.7.57-1.68,1.25-.88.47.87,1.11,1.59,1.98,2.02-.38-.93-1.02-5.41,1.03-3.59.85.87,1.35,2.09,2.21,2.94.68-2.96-1.47-5.52-1.87-8.36-.1-.49.42-1.09.9-.74.46.35.83.76,1.29,1.02,0,0,0,0,0,0-.42-.99-1.2-1.74-1.78-2.62-.27-1.99,2.5-.28,3.37-.03-.35-.29-.7-.86-.32-1.27-.62-.65-1.27-1.22-1.98-1.69-.56-.42-1.39-.73-1.57-1.46.06-1.51,2.15-.17,2.98-.22-1.47-.9-2.9-1.95-4.4-2.78-1.07-.68-3.32-.8-3.6-2.21-.01-.29.25-.49.52-.53-2.12-1.32-4.64-1.88-6.67-3.35-.2-.16-.47-.4-.41-.69.05-.26.28-.47.56-.43.58.2,1.19.29,1.8.39,2.9.23,5.84.37,8.5,1.7-.47-.53-1.24-.92-1.41-1.63-.06-.64.72-.69,1.13-.42,2.32,1.28,4.5,2.8,7.09,3.46-.49-.81-1.26-1.3-2.09-1.7-4.02-2.4-8.77-2.92-13.23-4.01-.33.54-1.18.03-.85-.52.15-.17.12-.4.28-.57.21-.23.62-.18.78.09,4.19,1.01,8.49,1.6,12.41,3.48.74.44,1.49.84,2.23,1.27.86.58,1.42,1.55,2.07,2.34.39,2.04-5.51-.76-6.23-1.25.49.41,2.04,1.5.74,1.86-1-.16-1.85-.87-2.79-1.25-2.46-1.24-5.15-1.71-7.88-1.75.78.39,7.89,3.06,5.73,4.09,2.5.82,4.52,2.56,6.77,3.86.42.24,1.04.81.6,1.3-.69.52-1.69.24-2.47.11.59.49,3.43,2.33,2.46,3.1.57.44,1.64,1.67.33,1.89-1.05,0-2-.54-2.96-.9.64.85,1.35,1.83,1.55,2.85-.29,1.02-1.64.54-2.21.04.54,2.11,1.73,4.07,1.81,6.27-.3,4.72-2.5,1.35-3.82-.67-.18,1.15.74,2.22.3,3.28-.98,1.07-2.54-.6-3.18-1.38-.01.51-.52.88-.99.64,0,1.11.25,2.17.43,3.25.06.45-.18.98-.66,1.1-.32.1-.65-.08-.84-.33-.73,1.64-.73,6.16-2.72,6.48Z"/>
  <path d="M73.55,74.64c-2.64-2.25-4.21-5.59-6.44-8.25-.75-.94-1.24-2.15-2.02-3.02-.46-.45.25-1.17.71-.71,2.61,3.63,5.03,7.48,7.95,10.91.69-1.05,1.23-2.29,1.08-3.56-.06-1.41-.68-3.14.39-4.32.38-.4,1.01-.35,1.37.05-.11-.83-.15-3.15,1.23-2.21-.05-1.04.24-2.09,1.48-1.44-.88-1.9-.19-3.1,1.65-1.5.02-1.09-.87-4.3,1.13-3.78,1.26,1.12,1.98,2.83,2.68,4.35.36-1.23.18-2.41.15-3.64-.01-1.54.08-3.09-.44-4.56-1.12-2.48-2.12-4.96-3.53-7.26-1.32-1.01-2.58-2.33-4.15-2.92-1.84-.56-3.57-1.32-5.47-1.51-.57.63-1.4-.54-.68-.94,2.01-.25,4,.77,5.88,1.31,2.03.53,3.57,2.1,5.16,3.38.94,1.17,1.45,2.61,2.03,3.98,2.37,3.6,2.49,7.7,2.16,11.86-.12,1.02-1.1,3.17-1.83,1.19-.55-1.49-1.3-2.87-2.23-4.15-.16,1.55,1.16,5.53-1.77,3.27,0,0,0,0,0,0,.62,1.23.47,2.44-1.18,1.83-.14.63.18,1.39-.19,1.94-.34.33-.85.12-1.1-.22-.17.69.78,3.49-.64,2.85-.38-.35-.65-.79-1.04-1.13-.3.41-.28.95-.27,1.43.18,1.69.52,3.51-.35,5.06-.45.61-.71,1.96-1.7,1.69Z"/>
  <path d="M41.03,94.15c-1.01-.3-1.51-1.48-2.09-2.23-1.62-2.32-.6-5.33-1.13-7.88,0,0,0,0,0,0h-.11c-.08-.02-.16-.02-.24-.02-.97,1.77-1.42,3.82-2.65,5.46-.2.26-.48.6-.84.6-2.01-.21-1.47-5.93-1.12-7.38-1.21,1.26-3.63,2.94-4.33.3-1.9,1.24-2.92.23-3.04-1.81-.83,1.69-.1,4.2-1.74,5.39-.68.27-1.35-.25-1.84-.67-.99-.73-1.36-1.9-1.82-2.97-.13-.25-.22-.42-.43-.54-.42.03-.88-.14-.91-.62-1.37,1.08-1.98-2.07-2.79-2.67,0,0,0,0,0,0-.18.15-.31.32-.42.52,0,.64-1.01.63-1,0,.03-.55.45-1.01.86-1.34,1.53-.82,2.07,1.61,2.79,2.5.22-.63.44-2.55,1.38-1.39.17.64.08,1.33.15,2,1.29.23,1.47,1.81,1.99,2.79.4.62.96,1.18,1.64,1.49.19-.14.25-.38.33-.57.34-1.71.47-3.48,1.18-5.11.22-.5.46-1.29,1.13-1.26.42.04.53.49.48.84-.04.99-.06,1.89.29,2.8h0c.51.63,1.33-.6,2.01-.36.57.11.75.76.94,1.23.07.24.37.21.53.16,1.21-.44,1.93-1.59,2.88-2.34,1.35-.04.67,1.91.59,2.73-.33,1.72-.24,3.53.25,5.19,1.13-1.49,1.59-3.3,2.39-4.96.19-.38.4-.84.86-.96.37-.04.8-.03,1.13.14,1.22,1.17.36,3.31.64,4.83-.07,1.99.74,3.77,2.17,5.12,0,0,0,0,0,0,.02-.07.04-.13.03-.14-.13-2.27.25-4.44.59-6.67.21-1.02,0-2.85,1-3.41,1.46-.31,1.21,1.17,1.28,2.14.95-.96,2.33-3.58,2.84-.85.09.2.13.42.31.52.18,0,.34-.13.49-.21,1-.51,1.81-2.22,3.07-1.73.66.52,1,1.37,1.76,1.81.24-.83-.68-4.29.76-3.87.32.16.43.53.59.83,1.02,2.12,1.88,4.46,1.26,6.83,0,.02-.02.03-.03.04,1.5-2.17,2.09-4.79,2.23-7.38.37-6.05,2.4-1.76,3.49,1.11.94-6.3,1.24-8.55,4.37-1.16.69-1.47,1.29-2.84,1.57-4.41.06-.66.56-1.63,1.26-.9,2.43-.78,1.2-3.3.66-5.07-.39-1.69-1.07-3.15-1.64-4.76-.26-.75-.36-1.5-.86-2.09-.12-.14-.26-.25-.42-.33-.56-.31-.05-1.2.51-.86,1.1.59,1.4,1.88,1.73,2.99.47,1.41,1.17,2.74,1.49,4.19.64,2.09,2.18,5.73-.79,6.67-.25.29-.55.66-.98.53-.37,1.96-1.26,3.77-2.14,5.55-.09.41-.57.67-.9.35-.23-.19-.16-.5-.04-.73h0c-.72-1.39-1.1-2.93-2.06-4.19-.35,1.53-.48,3.06-.8,4.59-.07.59-.35,1.61-1.14,1.2-1.05-1.14-1.21-2.93-2.08-4.18-.39,3.72-.8,7.71-3.51,10.57-.47.56-2.01,2.61-2.37,1.01.28-.99,1.07-1.83,1.41-2.77.54-1.71.15-3.51-.56-5.08.36,4.19-1.54,2.57-3.23.4-1.27,1-3.56,3.58-4.39.74-.68.6-1.3,2.13-2.36,1.84-.68-.31-.43-1.18-.54-1.77-.25,1.85-.47,3.74-.83,5.56-.23,1.22.77,4.09-1.15,4.1Z"/>
  <path d="M18.76,79.49c-.09-1.92.11-3.84.85-5.64-.6.28-1.68,1.21-2.11.26,0-1,.73-1.88.99-2.83-2.09.04-.32-2.8.13-3.73-3.3,2.03-1.54-1.17-.86-2.75.48-1.36,1.43-2.48,2.69-3.18-1.91-1.23.95-2.72,2.15-2.94-1.93-1.03-1.05-1.92.62-2.36-1.72-.85-3.77.12-5.49-.41-.25-.23-.15-.66.13-.83,2.69-2.19,4.93-3.34,8.3-1.63-.23-1.27-.96-2.34-1.91-3.18-.82-.65-2.42-2.89-.24-2.62-.41-.37-.9-1.1-.25-1.49.77-.27,1.61.38,2.24.78.05-.83.5-4.09,1.74-2.51.89,1.77,2.36,3.05,3.66,4.48-.07-.05-.18-.09-.28-.09.27.02.5.21.5.5,0,.56-.75.65-1.01.2-1.18-1.27-2.49-2.45-3.38-3.96-.46,1.14.23,4.01-1.77,2.23.44.87-.74,1-1.33.87,1.36,1.44,2.87,2.87,3.07,4.98.21,1.73-1.81.56-2.59.26-1.76-.63-3.62-.13-4.95,1.12,1.57-.11,3.2-.15,4.6.68.48.18,1.07.81.54,1.26-.65.28-1.47.25-2.09.61,3.56,2.07-.76,1.72-1.87,3.13.37.21.98.1,1.19.55.06.15.07.32-.02.47-.57.6-1.42.87-2.03,1.44-1.09.91-1.4,2.35-1.99,3.58.57-.25,1.45-1.03,1.98-.36.18.3.03.62-.11.9-.48.94-1.07,1.88-1.35,2.88.42-.32,1.04-.6,1.22.09-.01,1.01-.62,1.95-.96,2.89,3.5-2.11,1.4,1.43,1.12,3.11-.21,1.11-.2,2.13-.18,3.24,0,.65-1,.65-1,0Z"/>
  <path d="M9.76,66.63c-.43-.47.15-.83.51-1.09,1.23-1.3,2.75-2.44,3.62-4.02.77-2.76,1.34-5.57,2.49-8.21.46-1.14,1.48-2.03,2.24-2.92.98-1.19,2.72-2.83,4.28-1.66.68.53-.22,1.49-.7.73-1-.47-1.92.63-2.56,1.28-.72.87-1.6,1.62-2.16,2.59-.88,2-1.57,4.22-2.09,6.3-.14,2.27-1.6,3.99-3.23,5.43-.57.54-1.06,1.19-1.73,1.59-.2.16-.49.15-.67-.03Z"/>
  <path d="M50.57,55.9c-2.89.21-4.22-1.45-5.18-3.95-.24-.71-.35-1.46-.55-2.19-.06-.27-.02-.57.24-.72.43-.26,1.05.2.78.68.33,1.71.92,3.49,2.22,4.68.92.58,2.06.48,3.1.49,1.11,0,1.79-.92,2.59-1.51.6-.48,1.21-.84,1.36-1.61.25-.6,1.18-.2.92.39-.15.76-.71,1.28-1.3,1.73-1.25,1.04-2.43,2.25-4.18,2.02Z"/>
  <path d="M49.87,50.14c-.52-.02-1.04-.33-1.17-.85-.45.21-1.21.74-1.47.02-.11-.78,1.08-.82,1.57-1.16.26-.1.55-.02.69.23.15.21.05.53.23.71.35.13.93.05,1.08-.32.11-.56-.13-1.2-.37-1.65-.2-.47-.9-1.14-.2-1.5.72-.25,1.02,1.06,1.3,1.48.68,1.48.23,3.18-1.66,3.04Z"/>
  <path d="M45.45,50.66c-.43-.82,1.08-1.35,1.6-1.75.42-.28,1.3-.58,1.37.18-.04.61-1,.6-1.39,1-.49.23-1.04,1.17-1.58.58Z"/>
  <path d="M18.05,58.52c-.93-.38-1.91-.95-2.5-1.78-.32-.85,1.28-1.26,1.12-.23,1.23,1.19,2.89,1.44,4.52,1.29.53.01,1.42-.49,1.6.27.03,1.18-3.95.74-4.73.45Z"/>
  <path d="M25.06,43.8c-2.35-1.55-5.17-1.94-7.89-2.36-.24-.03-.43-.25-.43-.5,0-.27.23-.5.5-.5,1.45-.02,2.82-.32,4.27-.37,0,0,0,0,0,0-.85-.49-1.79-.57-2.71-.87-.19-.06-.34-.21-.36-.41-.06-.58.59-.62,1.02-.6.84-.06,1.63-.08,2.39-.27-.14-.35-.47-.54-.77-.71-2.14-.62-4-1.75-6.1-2.46-.47-.11-1.34-.12-1.2-.8.07-.26.36-.43.62-.35,1.16.23,2.25.66,3.32,1.16,1.49,1.11,3.7.94,4.88,2.44.66.91.04,1.76-.99,1.8.67.25,1.89,1.36,1,1.98-.52.14-1.08.06-1.62.14,1.5.31,3.01.83,4.3,1.67.93-.04.59,1.28-.22,1.02Z"/>
  <path d="M43.66,36.52c0-.21.13-.39.28-.54,1.23-1.15,2.68-2.02,4.19-2.75,4.39-1.87,9.52-1.82,14.19-1.43.74.3.25,1.22-.46.93-5.83-.37-12.42-.33-16.99,3.76-.25.17-.35.54-.7.53-.27,0-.5-.23-.5-.5Z"/>
  <path d="M44.29,36.73c-.73-.15-.34-1.11-.13-1.53.23-.57.21-1.21.28-1.8.07-4.16,2.76-7.89,6.39-9.75,2.22-1.62,4.88-2.33,7.59-2.19.27-.02.52.14.56.43.02,1.02-1.97.45-2.59.62-3.14.32-5.79,2.34-8.17,4.2-.81,1.12-1.63,2.28-2.18,3.52-.61,1.53-.55,3.05-.77,4.61-.02.38-.2.75-.34,1.05-.08.39-.13.9-.65.84Z"/>
  <path d="M24.49,53.2c.06-.91-.52-1.81-1.37-2.13-1.08,1.64-3.22-.04-2.72-1.65.05-1.08,1.82-.52.98.31,0,.2-.03.39,0,.58.17.22.59.61.83.31.17-.39.42-.82.92-.62.75.25,1.39.68,1.82,1.35.37.51,1.02,2.22.03,2.36-.28,0-.49-.23-.5-.5Z"/>
  <path d="M20.55,57.73c-1.06-.18-2.05-.78-2.91-1.36-.39-.4-.49-.84-.83-1.25-.16-.26-.43-.48-.44-.8-.02-.68,1.12-.72,1.09,0,.35.42.57.93.89,1.36.99.58,2.08,1.28,3.27,1.11.64-.09.78.91.13.99-.4.06-.8.02-1.2-.03Z"/>
</svg>