<?xml version="1.0" encoding="UTF-8"?>
<svg id="Layer_1" data-name="Layer 1" xmlns="http://www.w3.org/2000/svg" viewBox="0 0 112.87 86.61">
  <path d="M43.1,33.26c.9-.04,1.76-.68,2.12-1.49.32-.97.4-2.1-.19-2.95-.83-.06-1.25-1.11-2.15-1.08-1.32.04-2.12,1.35-2.72,2.37-.28.72-.09,1.5.33,2.1.67.67,1.68,1.01,2.61,1.04ZM42.32,34.2c-2.14-.27-4.01-2.35-3.06-4.52,1.08-2.3,3.68-4.16,5.79-1.85,0,0,.02,0,.03,0,.15,0,.28.08.36.19,1.14.48,1.04,2.21.94,3.27-.23,1.88-2.21,3.33-4.07,2.91Z"/>
  <path d="M74.78,30.67c.48-.03.74-.44.91-.83.21-.68.41-1.38.34-2.08-.11-.58-.71-.88-1.22-1-.12.36-.61.43-.85.15,0,0,0,0,0,0-2.46.5-1.58,4.19.89,3.76,0,0-.07.01-.07.01ZM74.11,31.65c-2.61-.12-3.58-3.99-1.37-5.34.5-.28,1.19-.6,1.73-.27.36-.59,1.16-.06,1.6.19,1.35.75,1,2.47.65,3.7-.29,1.17-1.4,1.99-2.61,1.73Z"/>
  <path d="M57.4,67.09c1.77-.07,3.14-1.35,4.47-2.34,1.08-.67,1.94-1.57,2.7-2.59,1.28-1.48,2.62-3.24,2.04-5.27-2.23-3.42-13.51-2.77-16.45-.34,0,.02,0,.04,0,.06-.01.23-.2.44-.43.47-.43.63-1.04,1.14-1.42,1.79.03.25.23.49.33.69,1.04,1.69,2.49,3.11,3.92,4.46,1.17,1.57,2.82,2.96,4.84,3.07ZM56.91,68.06c-2.03-.32-3.86-1.65-5.02-3.3-1.38-1.32-2.77-2.66-3.83-4.26-.82-1.11-1.11-1.99.04-3.02.63-.63.94-1.53,1.74-1.97,3.13-2.5,17.81-3.45,17.89,2.12.08,2-1.07,3.64-2.34,5.07-.82,1.13-1.77,2.12-2.96,2.86-1.61,1.23-3.37,2.73-5.53,2.49Z"/>
  <path d="M50.95,62.8c-.05-.26.11-.55.38-.59,1-.19,2.03-.65,2.91-1.11-.29-.43-.55-.84-.98-1.12-1.05-.25-2.22.23-3.13.67.14.59-.62.78-1.03.52-.5-.3-.22-.91.18-1.15,1.25-.79,3.01-1.46,4.46-.91.71.49,1.5,1.31,1.59,2.19-.45,1.01-1.84,1.14-2.74,1.61-.49.15-1.42.62-1.64-.1Z"/>
  <path d="M64.56,62.26c-1.56-.14-3.62.11-4.64-1.34-.45-.91.46-1.75,1.18-2.18,1.45-.97,3.74-.59,4.94.58.23.6-.76,1-1.03.44-.97-.52-2.21-.85-3.22-.27-.34.24-1,.56-.95,1.01,1.04.88,2.52.62,3.78.76.65.03.59,1.05-.05,1Z"/>
  <path d="M59.81,83.7c2.32-.09,4.27-1.59,6.12-2.78,1.74-2.02,1.77-5.25,1.11-7.69-.07-.18-.09-.44-.28-.53-.77-.23-1.54-.38-2.32-.5-4.57-.65-9.32-.47-13.7,1.03-.28.33-.9.3-1.13.67-.18.86.21,1.63.55,2.4.42,1.01.72,2.07,1.29,2.94,1.82,3.21,4.82,4.35,8.35,4.47ZM59.78,84.7c-4.59-.02-8.49-2.34-10.05-6.77-.51-1.57-2.32-4.26-.11-5.23,3.79-1.84,8.31-1.95,12.49-1.77,1.47.09,2.93.33,4.37.65.78.1,1.38.58,1.52,1.37.76,2.85.69,6.57-1.48,8.78-2.06,1.34-4.18,2.93-6.74,2.97Z"/>
  <path d="M58.68,83.91c-.25-.05-.46-.32-.39-.59.63-2.47.58-5.22-1.07-7.25-.13-.21-.04-.51.16-.65.79-.55,1.74,1.91,1.97,2.5.32.96.67,6.01-.67,5.98Z"/>
  <path d="M30.4,50.12c-.05-.04-.11-.07-.18-.1-.01,0-.03-.01-.04-.02,0,0,.02,0,.02.01-.23-.09-.5-.09-.73.02.59-.58,1.12-1.24,1.57-1.88.62-.88,1.46-1.68,1.94-2.62.41-1.26.45-2.6.57-3.91.71-5.68-.13-11.49,1.39-17.09.42-2.31,1.75-4.27,2.71-6.37.13-.24.41-.36.67-.23.23.11.36.43.23.67-.57,1.02-.95,2.14-1.56,3.14-2.8,5.83-1.68,12.52-2.33,18.75-.32,2.41,0,5.19-1.86,7.04-.62.89-1.36,1.86-2.19,2.75-.07-.05-.13-.1-.2-.14Z"/>
  <path d="M23.39,52.56c-1.24-.74-1.96-2.11-2.87-3.18-.91-1.16-2.1-2.07-2.96-3.28-1.24-2.43-3.3-4.18-4.96-6.29-1.73-2.45-3.33-5.03-4.99-7.52-.75-.91-1.91-1.71-1.78-3.03-1.34.82-2.6.78-1.85-1.11-3.8,1.39-2.26-1.14-1.22-3.18-.74.02-2.86.6-2.75-.62.04-.23.25-.43.43-.52,4.05-2.64,7.86-5.73,12.47-7.37.5-.11.75.23.78.57.03.4-.25.8-.8.48-2.59.99-4.87,2.56-7.29,3.88-1.21.88-2.32,1.91-3.64,2.66,3.52-.72,1.29,1.77.71,3.44,1.43-.4,2.98-1.27,2.21,1.12.9-.54,2.02-.88,1.95.61-.02.29,0,.61.17.84,1.02,1.21,2.1,2.4,2.84,3.82,2.01,3.3,4.29,6.35,6.91,9.14,1.37,2.4,3.27,4.24,5.01,6.33.8.93,1.41,2.21,2.68,2.55,1.75.37,3.31-.36,4.59-1.48-.16.27-.2.59-.1.92.03.11.07.21.13.3-1.09.82-2.3,1.38-3.6,1.38-.67,0-1.36-.15-2.07-.48Z"/>
  <path d="M28.2,51.58c-.4.21-.86-.25-.74-.66.11-.49.7-.48,1.08-.29.12.07.24.13.36.2-.03.17-.01.35.04.52.04.15.11.29.19.42-.06.09-.11.19-.15.29-.25-.17-.51-.33-.77-.48Z"/>
  <path d="M96.91,52.81c-2.67-1-5.17-2.94-6.79-5.29-.95-1.49-1.16-3.28-1.71-4.93-2.94-5.77-1.96-12.29-1.66-18.49.02-.59.96-.62,1-.01-.01.5-.03,1-.05,1.5-.5,5.82-.85,11.78,1.81,17.14.56,2.81,1.69,5.43,4.14,7.04,1.44.87,3.01,2.58,4.82,2.06-.02.01-.04.02-.05.03-.02,0-.03.01-.04.02.77-.38,1.02-1.25,1.37-1.98.91-2.49,1.12-5.17,1.56-7.77.59-3.3,1.81-6.45,2.34-9.76.2-1.37-.12-2.87.5-4.15.84-1.18,1.9.45,2.62.98,1.31,1.05,2.76,2.54,4.53,2.5-.64-1.44-1.41-2.75-2.42-3.94-.57-.79-2.55-2.8-.73-3.22-3.36-3.46-1.02-4.2,2.45-2.64-1.65-2.36-2.98-4.81-4.97-6.9-.89-1.22-1.71-2.54-2.96-3.4-.89-.64-1.89-1.04-2.85-1.53-1.53-.81-2.87-1.93-4.35-2.82-.75-.38-1.63-1.4-.46-1.89.6-.14,1.23-.14,1.85-.22-1.19-.43-2.8-.3-3.67-1.31-.19-.39.12-.89.52-.98,1.02-.3,2.27-.4,2.96-1.27-4.63-1.45-9.35.03-13.77,1.48-6.92.36-13.9-.11-20.82.37-8.41.61-17.14,1.09-24.79,4.98-3.42,1.43-7.04,2.25-10.53,3.46-3.75,1.35-7.31,2.99-10.91,4.63-1.19.55-2.41,1.02-3.66,1.42-.18.11-.42.1-.58-.05-.26-.21-.21-.6.04-.79,1-.41,2.1-.71,3.08-1.17,6.55-3.23,13.36-5.61,20.31-7.72,6.09-2.66,12.43-4.84,19.15-5.07,9.08-1.16,18.23-.88,27.35-.97,1.63.06,3.09-.74,4.62-1.17,2.04-.68,4.18-.95,6.33-.95,1.53-.19,3.02.26,4.5.6.21.05.46.11.59.3.66,1.59-1.58,2.41-2.79,2.69,1.4.44,3.1.46,4.25,1.39.5,1.36-2.47,1.02-3.26,1.24,1.54.96,2.97,2.11,4.58,2.97,1.1.55,2.26,1.02,3.21,1.81,1.18.87,1.97,2.12,2.81,3.3,1.53,1.74,2.97,3.6,4.08,5.62.3,1.01,3.64,3.63,1.95,3.98-.66.03-1.13-.58-1.69-.85-1.02-.55-2.08-.88-3.2-.99.83,1.5,2.41,2.57,3.07,4.16.11.37-.3.7-.64.58-.45-.14-.75-.54-1.14-.8,1.32,1.8,2.93,3.57,3.52,5.76,0,.76-.92,1.02-1.55.91-2.38-.41-4.12-2.28-5.85-3.82-.38,1.56-.06,3.2-.51,4.76-.58,2.89-1.58,5.7-2.13,8.59-.69,2.94-.71,11.91-5.38,10.57Z"/>
  <path d="M60.42,86.6c-1.49.17-1.08-1.57.06-1,2.46.01,4.85-1.02,6.88-2.31,1.31-1.04,2.27-2.43,3.38-3.66,1.56-1.54,3.25-2.92,4.49-4.75,3.37-3.42,6.11-6.38,9.06-10.23,1.31-2.07,2.5-4.2,4.21-5.99.92-1.28,1.3-2.83,1.85-4.28.67-1.65,1.86-3.07,2.29-4.83.06-.29.16-.6.27-.88.19-.6,1.16-.31.95.32-.18.45-.26.88-.4,1.33-.47,1.51-1.47,2.86-2.11,4.28-.49,1.24-.84,2.54-1.46,3.73-1.28,2.05-3.12,3.7-4.13,5.94-2.83,4.07-6.25,7.67-9.71,11.19-1.24,1.75-2.74,3.19-4.34,4.59-1.26,1.36-2.31,2.92-3.78,4.06-2.23,1.45-4.84,2.52-7.52,2.5Z"/>
  <path d="M61.48,86.52c-3.92-.02-8.46,0-11.5-2.88-1.44-1.56-3.26-2.75-4.56-4.41-2.64-3.67-4.81-7.66-7.5-11.27-2.24-3.77-4.45-7.57-6.86-11.22-.8-1.72-1.61-3.43-2.73-4.96-.39-.81,1.07-1.2,1.02-.24,1.73,2.29,2.46,5.15,4.38,7.33,2.39,4.4,5.14,8.56,7.88,12.71,1.57,2.59,3.22,5.06,4.97,7.51,1.84,1.62,3.52,3.47,5.51,4.91,2.24,1.1,4.9,1.53,7.36,1.52.75.12,2.6-.52,2.63.61-.05.27-.32.45-.59.4Z"/>
  <path d="M41.88,73.62c-.27-4.6.19-9.14,1.52-13.54.31-1.33.66-2.74,1.68-3.72,1.48-1.39,2.27-3.23,3.5-4.8,1.93-1.87,3.78-3.56,5.2-5.9,1.16-1.45,2.77-2.42,4.03-3.77.14-.11.32-.16.5-.1.71.21.13,1.53-.45,1.46,0,0,0,0,0,0-.83.86-1.91,1.53-2.71,2.38-1.49,1.63-2.38,3.62-4.13,5-2.45,1.81-3.37,4.83-5.58,6.87-.83,1.21-.99,2.74-1.33,4.14-.26,1.12-.76,2.19-.85,3.34-.31,2.82-.52,5.72-.35,8.55.06.64-.95.73-1,.08Z"/>
  <path d="M76.8,73c-.41-1.9-.4-3.87-.98-5.72-.57-1.71-1.31-3.37-1.79-5.11-.85-2.05-1.45-4.23-2.4-6.22-.6-1.33-1.45-2.59-1.86-3.99-.7-1.76-2.34-2.7-3.66-3.92-1.35-1.15-2.23-2.9-3.93-3.58-1.33-.44-2.7-.89-4.04-1.25-.55-.05-.81-.81-.24-1.04.28-.05.81-.04,1.01.19,1.63.66,3.47.83,4.91,1.9,1.4,1.11,2.34,2.72,3.79,3.77,1.96,1.26,3.08,3.23,3.81,5.38,2.04,3.49,3.13,7.44,4.47,11.23,1.31,2.57,1.42,5.51,1.91,8.28.06.64-.94.74-1,.08Z"/>
  <path d="M34.72,31.1c-.84-.52,1.41-2.75,1.87-3.23,1.5-1.19,2.71-2.68,3.91-4.17,3.27-3.75,4.29-.26,6.24,2.3.6-.26.98.7.36.93-.36.2-.78.09-1.04-.2-.87-.99-1.45-2.21-2.29-3.23-1.3-1.91-4.23,3.48-5.44,4.19-1.16.92-2.14,2-2.91,3.27-.15.23-.46.3-.69.14Z"/>
  <path d="M82.9,28.41c-1.57-1.63-3.33-2.92-5.41-3.83-1.27-.47-2.4-1.42-3.73-1.68-1.56.58-2.9,2.04-3.97,3.32.05.39-.42.73-.79.59-1.6-.72,3.64-4.94,4.57-4.9.81-.06,1.59.37,2.27.75,1.84.98,3.8,1.75,5.52,2.95.78.63,1.43,1.4,2.2,2.04.2.18.23.5.05.71-.18.2-.5.23-.7.05Z"/>
  <path d="M67.51,75.61c-.61-.37-1.27-.65-1.96-.81-2.22-.53-4.36-1.39-6.67-1.33-1.4-.2-2.63.27-3.98.51-1.77.24-3.49.48-5.15,1.16-.27.36-.96.16-.97-.3-.01-.19.09-.39.27-.48,1.74-.8,3.74-1.09,5.61-1.35,1.48-.26,2.93-.77,4.45-.53,1.82-.02,3.55.45,5.26.99,1.13.3,2.34.48,3.34,1.1.79.23.65,1.28-.19,1.04Z"/>
</svg>