<?xml version="1.0" encoding="UTF-8"?>
<svg id="Layer_1" data-name="Layer 1" xmlns="http://www.w3.org/2000/svg" viewBox="0 0 123.81 136.79">
  <path d="M2,80.07c-1.97-.61-2.11-3.27-1.95-5,.22-.99,1.2-1.62,1.73-2.45,2.22-3.42,3.26-7.38,4.82-11.08,2.98-8.33-1.7-16.71-1.36-25.09.44-6.26,2.36-12.66,6.93-17.15,1.54-1.68,2.76-3.69,4.58-5.1,3.14-2.33,6.7-4.28,10.52-5.21,1.01-.21,4.72-.72,4.77.6-.02.46-.61.64-.89.29-3.57-.65-6.89,1.08-9.97,2.64-3.16,1.55-5.58,3.93-7.64,6.72-4.18,4.08-6.52,9.58-7.11,15.35-.89,5.12.97,10.12,1.6,15.15,1.44,5.78.07,11.66-2.36,16.95-.93,2.33-1.76,4.77-3.28,6.79-.43.57-.94,1.06-1.34,1.65-.14.9-.07,1.85.18,2.72.35,1.32,1.22,1.58,2.38,1.04,2.75-1.41,4.89-3.7,7.23-5.64,1.73-1.15,3.1-2.67,4.08-4.49,1.42-2.51,1.41-5.45,1.98-8.22,1.38-6.45,1.22-13.23,3.35-19.5.35-.69.78-2.88,1.79-2.46.63.51-.32,1.15-.43,1.71-2.73,7.24-2.43,15.2-4.09,22.71-.38,4.31-2.23,8.6-5.99,10.99-2.05,1.72-3.93,3.62-6.18,5.08-.99.63-2.13,1.3-3.34,1.02Z"/>
  <path d="M103.86,97.85c-1.87-1.84-2.4-4.61-2.96-7.08-.78-3.51-1.82-6.95-2.09-10.54-.14-.84-.26-1.7-.55-2.5-.39-.57-.56-1.2-.39-1.89,1.82-3.23,4.15-6.26,6.14-9.4,1.2-2.4,1.53-5.17,1.76-7.8.03-.49.11-.99.07-1.48-.05-.27.11-.54.38-.6.27-.06.54.11.59.38.09,1.31-.15,2.64-.27,3.95-.38,5.87-4.67,10.2-7.62,14.97-.13.27-.15.63-.06.91.64.95.72,2.14.93,3.24.28,3.49,1.22,6.82,2.01,10.19.51,2.35.98,4.9,2.57,6.77.75-3.94.42-8.03.97-12.01.21-2.47,1.05-5.05,3.03-6.66,1.32-1.03,2.85-1.79,3.99-3.05,2.82-2.96,5.28-6.4,7.16-10.02,2.24-5.31,3.77-10.97,2.92-16.76-.66-6.75-1.45-14.16-6.02-19.5-3.16-3.17-6.67-6.11-10.83-7.84-.94-.48-1.96-.81-2.87-1.35-.14-.11-.2-.3-.16-.47.06-.54.91-.57,1.14-.14,3.74,1.53,7.27,3.49,10.32,6.15,2.42,2.14,4.83,4.39,6.01,7.49,2.53,5.38,3.04,11.28,3.55,17.13.33,4.25-.34,8.39-1.9,12.34-.79,2.51-1.84,4.92-3.43,7.04-1.85,2.83-3.84,5.62-6.45,7.8-3.28,1.99-5.29,4-5.48,8.05-.33,3.1-.41,6.21-.59,9.32-.17,1.15,0,4.45-1.87,3.35Z"/>
  <path d="M103.15,21.02c-1.32-1.58-3.15-2.63-4.51-4.16-3.29-2.37-6.94-4.1-10.54-5.91-1.13-.58-2.2-1.32-3.15-2.13-2.31-1.39-4.87-2.49-7.36-3.53-9.82-3.21-20.61-5.7-30.86-3.26-3.11.52-6.19,1.26-8.83,3.02-1.8,1.21-4,2.27-5.03,4.24.3.35-.06.89-.49.8-2.18-1.26,2.99-4.67,4.09-5.32,3.65-2.68,8.11-3.37,12.44-4.21,8.49-1.55,17.14.52,25.38,2.55,4.78,1.48,9.49,3.5,13.47,6.52,2.77,1.57,5.77,2.74,8.46,4.47,1.9,1.1,3.58,2.42,5.14,3.95.93.68,1.82,1.42,2.54,2.32.18.21.17.52-.04.71-.2.18-.53.17-.71-.04Z"/>
  <path d="M54.48,136.79c-4.37.15-8.25-2.2-10.8-5.64-5.16-4.26-6.87-11.09-9.72-16.89-1.19-3.15-1.61-6.53-2.71-9.71-.47-2.35-.46-4.78-1.13-7.09-.32-1.66-.96-3.21-1.24-4.87-.36-2.47-.4-5.1-1.34-7.43-.98-2.22-2.46-4.15-3.65-6.25-.64-1.21-1.12-2.57-1.98-3.62-.93-1.32-9.33-8.88-5.31-9.19.89-.06.73,1.09-.08,1.03,1.62,3.24,4.62,5.41,6.71,8.29,1.41,3,3.31,5.72,4.88,8.63,1.42,2.71,1.33,5.95,1.83,8.87,1.14,3.63,1.83,7.41,2.23,11.18,1.16,3.41,1.58,7.08,2.98,10.4,2.75,5.8,4.64,12.29,9.75,16.51,3.52,4.91,9.2,5.46,14.68,4.12,6.95-.97,12.47-7.62,11.2-14.69.09-1.58,2.34-1.41,3.48-1.8,2.4-.52,4.78-1.08,6.95-2.12,2.48-1.56,4.59-3.7,6.48-5.91,2.88-2.82,3.72-6.84,3.66-10.74-.08-3.24.13-6.61-1.47-9.49-.86-1.91-.17-3.99.35-5.88.46-1.64.77-3.31,1.48-4.86.64-1.33,1.72-2.4,2.95-3.21.96-.61,2.02-1.02,3.03-1.54.25-.12.55-.04.67.21.12.24.03.56-.21.68-1.5.73-3.2,1.4-4.35,2.62-1.59,1.55-1.92,3.92-2.5,5.95-.31,1.36-.82,2.62-.84,3.99-.01,1.34.79,2.4,1.19,3.62.61,2.15.66,4.47.67,6.69.1,3.09-.15,6.33-1.38,9.19-2.14,3.52-5.13,6.53-8.39,9.02-3.18,2.15-7.27,2.26-10.77,3.5,1.35,10.75-7.57,16.31-17.29,16.45Z"/>
  <path d="M69.67,112.02c3.26-.13,6.1-1.71,9.1-2.76,1.57-.78,2.61-2.22,3.57-3.63.53-.71,1.26-1.35,1.27-2.31.14-1.13-.76-2-1.34-2.86-.46-.65-.89-1.32-1.46-1.87-1.18-.9-2.52-1.49-3.85-2.1-.64-.37-1.6-.42-2.06-1.01-2.39-1.44-5.14-2.04-7.82-2.61-2.26-.54-5.57-1-6.95,1.34-1.33,4.14.06,8.17,2.17,11.74,1.89,2.69,3.65,6.21,7.36,6.08ZM68.95,112.98c-3.88-.24-5.89-4.13-7.78-7.03-1.19-2.33-2.53-4.72-2.5-7.41.02-1.81-.11-3.87.95-5.43,3.22-3.45,10.22-.7,14.06.58,1.68.77,3.38,2.17,5.32,1.89.5-.06.75.67.31.92,2.11.82,3.33,2.62,4.55,4.41,1.27,1.59.86,3.77-.56,5.11-.91,1.28-1.79,2.63-3.1,3.53-1.29.97-3.03,1.27-4.44,1.92-2.12.94-4.46,1.65-6.8,1.5Z"/>
  <path d="M65.62,105.02c.54-.25.88-.83,1.28-1.26.19-.31.59-.7.43-1.08-1.36-.76-3.02-.84-4.37-1.62-.03,1.33.87,2.44,1.77,3.31.3.27.53.58.9.66ZM65.3,105.98c-1.68-.88-3.32-2.78-3.31-4.76,0-.4.53-.62.82-.36-.27-.66.78-.94,1.1-.44,1.4.75,5.2.7,4.31,3.07-.56.96-1.63,2.76-2.92,2.48Z"/>
  <path d="M75.01,108.63c1.21-.07,2.86-.75,2.64-2.21-1.31-.47-2.49-1.27-3.83-1.65-.27,1.16-.36,2.68.43,3.62.23.18.52.25.81.23-.01,0-.03,0-.04,0ZM74.08,109.45c-1.87-.99-1.59-3.7-1.11-5.44.06-.24.33-.38.57-.33.14-.06.31-.08.46-.07.19.01.36.14.43.3,1.03.3,2.01.97,3,1.34.43.18.96.3,1.13.79.69,2.4-2.47,4.13-4.49,3.41Z"/>
  <path d="M56.22,130.05c4.38-.09,9.74-2.38,10.05-7.32.2-2.53.78-5.76-1.27-7.6,0,.71-1.12.64-1.23.02-2.47-.13-5.06-.19-7.28-1.4-2.86-2.25-6.03-4.44-7.74-7.77-2.08-3.96-5.47-7.02-8.16-10.62-1.42-1.23-3.14-2.21-4.84-2.95-.61-.18-.67.76-.76,1.16-.16,3.66,1.18,7.17,1.93,10.7.44,2.79,1.8,5.29,2.32,8.05.29,1.92,1.16,3.63,1.95,5.38.63,1.66,1.19,3.32,2.11,4.83,3.15,4.03,7.71,7.2,12.91,7.51ZM56.6,131.04c-5.59-.08-10.43-3.45-13.9-7.62-1.63-2.49-2.33-5.46-3.66-8.09-1.74-6.44-3.99-12.79-4.97-19.42-.85-7.33,3.48-4.03,7.05-1.42,1.55,1.54,2.64,3.47,4.14,5.05,1.63,1.57,2.92,3.42,4.05,5.38,1.29,2.85,3.69,4.78,6.07,6.68,1.87,2,4.71,2.41,7.33,2.49.46-.33,1.12-.01,1.65-.04.5.04,1.05.06,1.45.39,2.46,2.86,1.8,7.22.93,10.6-1.47,4.06-6.16,5.74-10.15,6Z"/>
  <path d="M42.18,98.54c.02-.28.25-.47.53-.47s.48.27.47.53c-.02.28-.25.47-.53.47s-.48-.27-.47-.53Z"/>
  <path d="M41.26,97.21c-.32,0-.57-.2-.75-.45-.39-.55.48-1.11.84-.55.62.07.54,1.04-.08,1Z"/>
  <path d="M49.1,128.97c-.83-1.63-1.25-3.34-1.91-5.02-.5-2.87,1.01-5.75.78-8.63-.09-1.87-.54-3.71-1.38-5.35-1.63-2.24-2.95-4.67-3.92-7.25-.99-2.24-2.39-4.31-2.77-6.78,0-.78-1.12-3.3.23-3.13.37.18.9.96.44,1.3.3,2.68,1.37,5.09,2.65,7.42.77,1.68,1.39,3.4,2.28,5.01,1.99,2.66,3.55,5.71,3.47,9.12.12,2.61-1.02,5.13-.89,7.72.42,1.31.9,2.66,1.34,3.94.17.59,1.11,1.52.31,1.96-.26.1-.54-.04-.64-.3Z"/>
  <path d="M61.44,118.72c-1.84-.68-3.3-2.06-5.1-2.82-2.06-.6-4.15-1.17-6.28-1.44-.35.36-1.05-.01-1.02-.49.21-1.32,4.55.29,5.51.41,3.68.34,6.19,4.28,10.01,3.7.73-.05,2.13-.96,2.53-.05.05.25-.11.55-.38.59-1.75.37-3.54.87-5.28.09Z"/>
  <path d="M56.95,131.29c-.25-.12-.34-.42-.23-.67.85-2.95,3.36-5.38,3.16-8.55-.03-1.42-.24-2.81-.58-4.17-.11-.39-.12-.97.39-1.06.52-.09,1.18.69.65,1.09.47,2,.74,4.11.4,6.16-.35,1.86-1.78,3.43-2.39,5.17-.41.62-.46,2.31-1.39,2.03Z"/>
  <path d="M54.58,54.45c-3.07-.18-6.65-.03-9.21-1.97-1.21-1.03-2.38-2.14-3.26-3.46-1.42-1.69-2.91-3.81-2.8-6.1-.02-.77.76-1.54,1.29-.64.32.46.64,1.59-.29,1.44.89,3.31,3.41,6.02,5.94,8.19,2.45,1.5,5.59,1.4,8.38,1.55.64.02.6,1.04-.05,1Z"/>
  <path d="M54.74,54.44c-.26-.09-.4-.37-.32-.63.22-2.34.1-4.7-.44-6.98-.28-.96-.9-1.74-1.41-2.58-.73-1.08-1.5-2.41-2.86-2.74-3.13-.42-6.46-.05-9.32,1.25.13.89-1.14.73-1.08-.07.67-2.02,7.09-2.4,9.04-2.34,2.46-.18,4.13,1.64,5.24,3.62,1.6,2,1.86,4.59,1.94,7.07-.08.74.38,3.67-.77,3.39Z"/>
  <path d="M44.03,51.04c-1.6-2.97-.83-6.68.47-9.63.3-.49.51-1.53,1.25-1.39.53.15.49,1.1-.05,1.2-1.25,2.45-1.93,5.34-1.35,8.04.15.45.35.89.56,1.31.3.57-.59,1.04-.89.46Z"/>
  <path d="M48.73,53.33c.02-.27.25-.49.53-.48,0,0,.02,0,.03,0,2.82-1.23,3.53-4.24,4.12-6.98.04-.26.25-.46.52-.45.96.21.18,1.47.09,2.08-.43,1.5-.71,3.1-1.75,4.31-.47.53-3.38,3.2-3.53,1.51Z"/>
  <path d="M86.38,58.94c-.08-.88,1.28-.67,1.79-.82.62-.1,1.17-.18,1.77-.31,3.7-.81,8.85-2.43,10.08-6.38-1.35-.84-2.29-2.28-3.78-2.87-3.16-.96-7.03-.62-9.28,1.98-.27.95-1.44.32-.89-.47,2.39-3.06,6.79-3.53,10.33-2.53,1.67.56,2.75,2.06,4.11,3,.55.15.67.69.48,1.17-1.69,5.01-7.88,6.55-12.54,7.36-.66-.06-1.78.65-2.06-.15Z"/>
  <path d="M86.31,59.84c-.27-.05-.44-.31-.4-.58.27-1.19.42-2.51.39-3.7.19-1.16-1.33-5.93.06-6.05.7.09.43.94.44,1.43.33,2.83.85,5.69.1,8.5-.04.27-.33.45-.59.4Z"/>
  <path d="M91.97,57.14c-2.45-.71-2.74-3.19-2.36-5.37.29-1.24.09-2.89.98-3.84.24-.12.49-.01.74-.02.77.09.51,1.18-.22.99-.38,1.76-.72,3.6-.57,5.4.07.41.2.79.43,1.07.38.43.91.65,1.43.88.59.27.14,1.19-.44.9Z"/>
  <path d="M96.36,56.79c-.29-.14-.34-.49-.2-.75.68-2.46.41-5.72-1.74-7.35-.65.24-.94-.81-.33-1.02.51-.17.98.25,1.35.55,1.87,1.72,2.18,4.45,1.97,6.85-.14.57-.16,1.99-1.06,1.72Z"/>
  <path d="M58.17,41.04s.07-.07.11-.1c-.01-1.49-.2-2.93-.66-4.32-.36-.57-1.04-.8-1.64-1.01-3.45-.89-7.22.02-10.45,1.25-.61.34-1.46.51-1.74,1.19,2.12.25,4.26-.43,6.39-.21,2.96.17,5.6,1.58,7.99,3.2ZM58.21,42.06c-1.11-.17-1.92-1.15-2.88-1.65-2.93-1.64-6.35-1.84-9.61-1.34-1.5.23-4.03.08-2.5-2.01,3.37-2.4,10.29-3.8,14.14-1.96,1.86.95,1.67,3.45,1.91,5.24.05.83.05,1.81-1.06,1.71Z"/>
  <path d="M88.49,44.64c4.52-.39,8.9-1.75,13.41-2.25,0-.09-.01-.18-.02-.27,0-.01,0-.03,0-.04-2.39-1.23-5.08-1.32-7.7-1.35-2.05.03-4.17-.24-6.16.26-1.64.4-.96,2.41-.34,3.42.25-.18.63-.03.73.25.02,0,.05,0,.07,0ZM88.44,45.64c-.19,0-.35-.13-.43-.29-1.45.6-2.01-2.29-2.02-3.29.36-2.88,4.12-2.27,6.23-2.37,3.48.13,7.43-.23,10.45,1.77.21.29.19.63.24.97.2.51-.19.94-.71.92-4.64.48-9.13,1.94-13.77,2.28Z"/>
</svg>