<?xml version="1.0" encoding="UTF-8"?>
<svg id="Layer_1" data-name="Layer 1" xmlns="http://www.w3.org/2000/svg" viewBox="0 0 46.27 95.78">
  <path d="M3.27,39.02c-1.94-3.43-2.19-7.5-2.68-11.34C-.05,23.51-.2,19.28.29,15.08c.76-3.98,1.13-8.45,3.75-11.71C5.84,1.6,8.12-.35,10.82.06c.62.34.16,1.02-.27,1.29-1.47,1.49-2.99,3-4.03,4.81-2.42,3.93-1.63,8.49-.89,12.78.53,2.5,1.27,5.07,2.37,7.36.73,1.18,1.44,2.34,2,3.61.19.46.85,1.09.26,1.5-.23.13-.56.05-.68-.19-.92-1.96-2.13-3.71-3.02-5.66-1.36-3.32-2.08-6.85-2.49-10.41-1.11-5.36,1.42-10.46,5.3-14.05-2.16.45-3.89,2.09-5.2,3.75-1.26,2.24-1.88,4.83-2.37,7.3-1.29,6.05-.76,12.19.13,18.26.32,2.75.84,5.46,2.06,7.92.51.44-.26,1.22-.72.7Z"/>
  <path d="M41.41,39.64c-.3-.13-.35-.48-.22-.76.63-2.19,1.63-4.32,2.63-6.33,2.34-8.52,2.06-22.18-2.69-29.79.89,2.99,1.52,5.96,1.55,9.09.03,1.94.47,3.99-.14,5.87-.99,2.5-2.05,4.97-3.49,7.24-.8,1.68-1.55,3.39-2.62,4.92.15.66-1.02,1-1.12.24-.06-.33.18-.63.35-.9,1.51-2.22,2.41-4.89,3.89-7.11.81-1.9,1.91-3.78,2.28-5.81-.08-3.98-.03-8.1-1.32-11.91-.07-.85-1.57-4.31.16-3.78,6.3,6.23,7.32,27.18,2.92,34.65-.64,1.34-.97,2.75-1.51,4.12-.1.26-.42.36-.66.26Z"/>
  <path d="M39.94,34.67c-.32-.08-.44-.46-.29-.73,2.12-4.56,4.62-9.18,5.11-14.25.03-.27.31-.46.57-.42,1.36.52-1.12,6.61-1.46,7.88-1.14,2.37-2.07,4.82-3.28,7.15-.06.28-.38.45-.65.37Z"/>
  <path d="M7.09,33.65c-3.16-4.63-5.4-10.04-5.91-15.64-.11-2.43-.74-5,.17-7.34.18-.62,1.15-.34.96.28-.71,1.55-.34,3.3-.31,4.92.19,4.66,1.46,9.26,3.63,13.37.62,1.31,1.41,2.56,2.21,3.75.39.47-.32,1.12-.74.66Z"/>
  <path d="M9.57,31.26c-.26-.31-.07-.7.15-.98,1.55-3.01,4.73-4.07,7.75-5.03,6.39-2.54,10.72-.93,15.98,2.96.77.65,1.56,1.15,2.36,1.73.58.26.18,1.17-.41.91-.21-.09-.38-.27-.57-.4-3.65-2.5-7.35-5.8-12.1-5.43-2.44.15-4.66,1.14-6.94,1.86-2.18.72-4.01,1.75-5.14,3.81.23.57-.73,1.03-1.08.56Z"/>
  <path d="M15.75,95.77c-3.2-.29-3.54-1.42-4.29-4.24-1.52-5.54-1.57-11.37-3.24-16.88-.89-2.91-2.74-5.49-2.93-8.6-.54-6.44-1.69-12.83-2.62-19.2-.33-2.24-.27-4.49-.46-6.74-.11-.68.08-1.97,1.03-1.5.36.2.36.78-.04.93-.02,6.05,1.32,11.92,2.04,17.89.81,3.81.6,7.82,1.7,11.56.8,1.85,1.74,3.64,2.3,5.59,1.11,4.01,1.61,8.16,2.27,12.24.36,2.41.78,5.07,1.95,7.19.86.63,2.04.77,3.06.73,1.07-.24,1.48-1.37,1.64-2.69.33,0,.66,0,.99,0-.22,1.98-.89,3.7-3.08,3.7-.11,0-.21,0-.33-.01Z"/>
  <path d="M26.76,91.24c.2-.06.4-.12.6-.2.11-.04.22-.09.33-.13.38,1.33.93,2.6,2.01,3.41,3.38.32,4.35-3.67,4.19-6.34-.13-5.47-.32-11.37,2.79-16.13.52-.89,1.29-1.67,1.66-2.64.37-1.07.47-2.16.69-3.26.71-3.22.48-6.45.79-9.7.59-5.41,1.34-10.82.94-16.25,0-.31-.05-.63.04-.94.11-.38.7-.54.94-.19.24.29.41.75.02.99.42,5.84-.45,11.66-1.03,17.44-.09,4.01-.32,8.02-1.33,11.92-.54,1.68-1.96,2.96-2.64,4.52-.98,2.09-1.6,4.23-1.77,6.52-.8,4.91,2.18,14.68-5.23,15.09-1.69-.5-2.49-2.3-3-4.11Z"/>
  <path d="M10.1,50.74c1.02-.05,1.88-.7,2.7-1.23.14-.18.16-.28.21-.47.04-.75.3-1.75-.36-2.26-1.11-.68-2.6,1.62-3.4,2.29-1.3,1.41-.78,1.75.92,1.67,0,0-.07,0-.07,0ZM9.05,51.71c-2.16-.26-1.75-2.17-.52-3.33,1.01-.96,1.89-2.28,3.26-2.7.96-.22,1.97.5,2.26,1.38.12.31.31.72.02.99.02.9-.07,1.95-.92,2.46-1.22.83-2.59,1.48-4.1,1.21Z"/>
  <path d="M34.53,53c-1.85-.1-3.37-1.41-4.75-2.48-.45-.46.26-1.17.71-.7,1.4,1.01,3.04,2.6,4.88,2.07.68-.95-.75-2.42-1.31-3.18-.81-.99-2.34-1.9-3.54-1.16-.03.02-.05.04-.08.06-.02.02-.04.04-.05.05,0,0,.01-.02.02-.02,0,0,.01-.02.02-.02-.33.41-.47.99-.48,1.51.26.41-.28.94-.69.66-.37-.24-.33-.74-.28-1.12.09-1.49,1.37-2.67,2.89-2.35,2.62-.06,7.48,6.66,2.68,6.68Z"/>
  <path d="M9.74,81.63c-.42-.07-.54-.55-.34-.88.79-1.2.72-2.61.84-3.96.51-4.08.4-8.17.22-12.26,0-2.11-1.23-4.25-.62-6.31,1.17-2.31,4.91-3.2,6.33-.67.84,1.66,1.72,3.35,2.39,5.08.45.91.5,2.15,1.15,2.89,1.03.13,1.93-.5,2.86-.8,2.52-1.22,3.64.34,5.38,1.84.69-1.3.15-2.82.28-4.22.32-2-.22-4.31.89-6.09,1.15-1.66,3.36-1.55,5.1-1.06,3.43.41,2.74,6.92,2.85,9.47.03,2.15,1.12,3.96,1.42,6.03.04.27-.18.52-.44.55-.89-.04-.56-1.49-.93-2.09-1.93-3.89-.2-8.52-1.99-12.43-.11-.18-.31-.31-.49-.38-.94-.3-1.9-.51-2.81-.48-3.2.16-2.21,4.12-2.58,6.3-.23,1.59.81,4.79-1.23,5.38-1.47-.15-2.05-2.18-3.61-2.28-1.83,0-3.86,2.2-5.57.83-.75-1.22-.91-2.71-1.54-3.99-.82-1.46-1.36-3.56-2.55-4.7-1.31-.96-3.07-.1-3.89,1.07-.54,1.38.34,3.15.46,4.61.43,3.83.33,7.69.16,11.54-.33,2.2-.05,4.58-1.16,6.58-.04.27-.3.46-.57.42Z"/>
  <path d="M10.13,51.55c-.74-.13-1.23-.76-1.34-1.48-.09-.47-.34-1.03-.05-1.47.43-.53,1.41.08.9.66.13.45.09,1,.49,1.24.81.06.86,1.16,0,1.05Z"/>
  <path d="M12.88,50.4c-.82-.08-.28-1.19-.73-1.63-1.31,1.15-2.43-.48-2.11-1.78.27-.69,1.31-.29.95.38.06.24.03.97.43.7.25-1.04,1.47-.28,1.71.39.22.55.63,1.83-.25,1.94Z"/>
  <path d="M30.02,50.41c-.33-.9.11-1.75.62-2.48.44-.76.96-.58,1.55-.11.2-.2.05-.49.07-.74.03-.49.7-.67.95-.23.46,1.11-.61,2.65-1.76,1.69-.26.42-.57.78-.53,1.23,0,.13.04.26.08.39.17.62-.81.88-.97.25Z"/>
  <path d="M32.53,52.29c-.38-.39.05-1.11.57-.88.41-.23.81-.48,1.13-.84.19-.38.18-.76.25-1.17.09-.64,1.09-.49.99.15-.06.4-.08.81-.22,1.2-.26.74-1.95,2.17-2.71,1.54Z"/>
  <path d="M23.02,83.43c.85-.07,1.65-.22,2.32-.75.49-.46.8-1.05,1.22-1.56.68-.96,2.81-2.31,1.2-3.38-.33-.21-.59-.48-.96-.55-3.03-.47-6.08-.41-9.02.41-.36.36-.91.5-1.27.87,1.57,1.48,3.19,2.9,4.65,4.49.51.44,1.27.43,1.87.47ZM22.66,84.41c-1.4.03-2.46-.8-3.29-1.84-.78-.93-1.74-1.66-2.63-2.48-1.53-1.37-1.95-1.92.1-3.07.14-.39.62-.35.96-.45,3.15-.81,6.57-.98,9.72-.18,1.7.86,2.56,2.42,1.05,3.97-1.05.98-1.69,2.2-2.7,3.18-.91.66-2.09.91-3.21.88Z"/>
  <path d="M20.96,83.48c-.44-.5-.42-1.28-.58-1.9-.09-.43-.18-1.14.44-1.15.33,0,.52.31.5.62.07.57.18,1.13.33,1.68.49.44-.2,1.17-.69.75Z"/>
  <path d="M24.55,83.63c-.39-.06-.47-.48-.39-.8.22-.68-.42-2.2.43-2.42.26-.03.54.16.55.44-.07.71.46,2.77-.59,2.78Z"/>
  <path d="M17.84,93.2c-.02-.23.11-.45.33-.53.32-.46.45-1.11,1-1.39,1.6-.72,3.45-.68,5.17-.89,1.11.01,2.56-.07,3.41.73.26.27.49.79.05,1.04-.47.25-.65-.22-.91-.48-1.39-.44-2.85-.32-4.26-.12-1.04.23-2.41.03-3.19.82-.18.65-1.18,1.98-1.61.82Z"/>
  <path d="M18.53,93.29c-.27-.08-.41-.36-.34-.62.15-.53.23-1.16.43-1.67.51-1.15.17-2.41.22-3.61,0-.93-.29-1.9-.23-2.84.05-.2.24-.35.44-.37.27-.03.52.16.55.44.08,2.36.74,4.91-.18,7.18-.18.52-.08,1.64-.89,1.5Z"/>
  <path d="M27.22,92.24c-1.06-2.12-1.21-4.61-1.14-6.95.12-.49.86-.49.97,0,0,1.74.08,3.51.53,5.2.07.62.97,1.43.33,1.94-.23.13-.56.05-.68-.19Z"/>
  <path d="M4.87,47.63c-.93-.83,1.82-3.15,2.44-3.78,2.33-2.12,5.97-5.03,9.08-2.79.62.18.35,1.14-.28.96-3.54-2.45-7.46,1.9-9.8,4.27-.5.4-.62,1.68-1.44,1.34Z"/>
  <path d="M39.36,48.35c-2.79-2.57-7.06-9.55-10.89-4.53.1.47-.51.76-.86.47-.61-.63.35-1.4.73-1.89,1.16-1.17,2.95-1.61,4.53-1.14,2.55,1.05,4.33,3.25,6.07,5.28.32.37.65.74,1.03,1.02.5.4-.12,1.2-.62.79Z"/>
</svg>